<?xml version='1.0' encoding='UTF-8'?>
<!DOCTYPE svg PUBLIC "-//W3C//DTD SVG 1.0//EN" "http://www.w3.org/TR/2001/REC-SVG-20010904/DTD/svg10.dtd ">
<svg height="480" viewBox="0 0 640 480" width="640" xmlns:xlink="http://www.w3.org/1999/xlink" xmlns="http://www.w3.org/2000/svg" >
	<defs>
		<style type="text/css">
			<![CDATA[
				.data {
					fill: none;
					stroke: black;
					stroke-linecap: round;
					stroke-width: 1.5;
				}
				[class~="density"][id="A"] {
					fill: none;
					stroke: rgb(67, 0, 246);
				}
				[class~="density"][id="B"] {
					fill: none;
					stroke: rgb(255, 147, 0);
				}
				[class~="density"][id="X"] {
					fill: none;
					stroke: rgb(31, 234, 181);
				}
				[class~="legend"][id="A"] {
					fill: none;
					stroke: rgb(67, 0, 246);
				}
				[class~="legend"][id="B"] {
					fill: none;
					stroke: rgb(255, 147, 0);
				}
				[class~="legend"][id="X"] {
					fill: none;
					stroke: rgb(31, 234, 181);
				}
				line.axis {
					stroke: dimgrey;
					stroke-width: 0.75;
				}
				line.colorbar.tic {
					stroke: black;
					stroke-linecap: butt;
					stroke-width: 0.5;
				}
				line.scalebar {
					stroke: black;
					stroke-width: 0.75;
				}
				line.tic {
					stroke-linecap: round;
				}
				rect.colorbar {
					fill: none;
					stroke: black;
					stroke-width: 0.5;
				}
				rect.plot {
					fill: none;
					stroke: none;
				}
				text {
					font-family: Times;
				}
				text.axis {
					fill: dimgrey;
				}
				text.colorbar.label {
					fill: black;
				}
				text.label {
					font-weight: normal;
				}
				text.title {
					font-weight: bold;
				}
			]]>
		</style>
	</defs>
	<g id="axes" class="layer">
		<g id="x-axis">
			<line id="x-axis" class="axis" x1="24" x2="606" y1="432" y2="432"/>
			<g id="x-axis tics">
				<line id="tic at 500" class="axis tic" x1="29.440264" x2="29.440264" y1="429" y2="435"/>
				<line id="tic at 1000" class="axis tic" x1="92.241819" x2="92.241819" y1="429" y2="435"/>
				<line id="tic at 1500" class="axis tic" x1="155.04337" x2="155.04337" y1="429" y2="435"/>
				<line id="tic at 2000" class="axis tic" x1="217.84493" x2="217.84493" y1="429" y2="435"/>
				<line id="tic at 2500" class="axis tic" x1="280.64648" x2="280.64648" y1="429" y2="435"/>
				<line id="tic at 3000" class="axis tic" x1="343.44804" x2="343.44804" y1="429" y2="435"/>
				<line id="tic at 3500" class="axis tic" x1="406.24959" x2="406.24959" y1="429" y2="435"/>
				<line id="tic at 4000" class="axis tic" x1="469.05115" x2="469.05115" y1="429" y2="435"/>
				<line id="tic at 4500" class="axis tic" x1="531.8527" x2="531.8527" y1="429" y2="435"/>
				<line id="tic at 5000" class="axis tic" x1="594.65426" x2="594.65426" y1="429" y2="435"/>
			</g>
			<g id="x-axis small tics">
				<line id="small tic at 750" class="axis tic small" x1="60.841042" x2="60.841042" y1="430.5" y2="433.5"/>
				<line id="small tic at 1250" class="axis tic small" x1="123.6426" x2="123.6426" y1="430.5" y2="433.5"/>
				<line id="small tic at 1750" class="axis tic small" x1="186.44415" x2="186.44415" y1="430.5" y2="433.5"/>
				<line id="small tic at 2250" class="axis tic small" x1="249.24571" x2="249.24571" y1="430.5" y2="433.5"/>
				<line id="small tic at 2750" class="axis tic small" x1="312.04726" x2="312.04726" y1="430.5" y2="433.5"/>
				<line id="small tic at 3250" class="axis tic small" x1="374.84882" x2="374.84882" y1="430.5" y2="433.5"/>
				<line id="small tic at 3750" class="axis tic small" x1="437.65037" x2="437.65037" y1="430.5" y2="433.5"/>
				<line id="small tic at 4250" class="axis tic small" x1="500.45193" x2="500.45193" y1="430.5" y2="433.5"/>
				<line id="small tic at 4750" class="axis tic small" x1="563.25348" x2="563.25348" y1="430.5" y2="433.5"/>
			</g>
		</g>
		<g id="x-axis labels">
			<text font-size="12" class="axis label" text-anchor="middle" x="29.440264" y="450">500</text>
			<text font-size="12" class="axis label" text-anchor="middle" x="92.241819" y="450">1000</text>
			<text font-size="12" class="axis label" text-anchor="middle" x="155.04337" y="450">1500</text>
			<text font-size="12" class="axis label" text-anchor="middle" x="217.84493" y="450">2000</text>
			<text font-size="12" class="axis label" text-anchor="middle" x="280.64648" y="450">2500</text>
			<text font-size="12" class="axis label" text-anchor="middle" x="343.44804" y="450">3000</text>
			<text font-size="12" class="axis label" text-anchor="middle" x="406.24959" y="450">3500</text>
			<text font-size="12" class="axis label" text-anchor="middle" x="469.05115" y="450">4000</text>
			<text font-size="12" class="axis label" text-anchor="middle" x="531.8527" y="450">4500</text>
			<text font-size="12" class="axis label" text-anchor="middle" x="594.65426" y="450">5000</text>
		</g>
		<g id="y-axis">
			<line id="y-axis" class="axis" x1="24" x2="24" y1="432" y2="24"/>
			<g id="y-axis tics">
				<line id="tic at 0.0001" class="axis tic" x1="27" x2="21" y1="376.68963" y2="376.68963"/>
				<line id="tic at 0.0002" class="axis tic" x1="27" x2="21" y1="321.37925" y2="321.37925"/>
				<line id="tic at 0.0003" class="axis tic" x1="27" x2="21" y1="266.06888" y2="266.06888"/>
				<line id="tic at 0.0004" class="axis tic" x1="27" x2="21" y1="210.7585" y2="210.7585"/>
				<line id="tic at 0.0005" class="axis tic" x1="27" x2="21" y1="155.44813" y2="155.44813"/>
				<line id="tic at 0.0006" class="axis tic" x1="27" x2="21" y1="100.13775" y2="100.13775"/>
				<line id="tic at 0.0007" class="axis tic" x1="27" x2="21" y1="44.82738" y2="44.82738"/>
			</g>
			<g id="y-axis small tics">
				<line id="small tic at 5e-05" class="axis tic small" x1="25.5" x2="22.5" y1="404.34481" y2="404.34481"/>
				<line id="small tic at 5e-05" class="axis tic small" x1="25.5" x2="22.5" y1="404.34481" y2="404.34481"/>
				<line id="small tic at 0.00015" class="axis tic small" x1="25.5" x2="22.5" y1="349.03444" y2="349.03444"/>
				<line id="small tic at 0.00025" class="axis tic small" x1="25.5" x2="22.5" y1="293.72406" y2="293.72406"/>
				<line id="small tic at 0.00035" class="axis tic small" x1="25.5" x2="22.5" y1="238.41369" y2="238.41369"/>
				<line id="small tic at 0.00045" class="axis tic small" x1="25.5" x2="22.5" y1="183.10332" y2="183.10332"/>
				<line id="small tic at 0.00055" class="axis tic small" x1="25.5" x2="22.5" y1="127.79294" y2="127.79294"/>
				<line id="small tic at 0.00065" class="axis tic small" x1="25.5" x2="22.5" y1="72.482567" y2="72.482567"/>
			</g>
		</g>
		<g id="y-axis labels">
			<text font-size="12" class="axis label" text-anchor="end" x="18" y="381.18963">0.0001</text>
			<text font-size="12" class="axis label" text-anchor="end" x="18" y="325.87925">0.0002</text>
			<text font-size="12" class="axis label" text-anchor="end" x="18" y="270.56888">0.0003</text>
			<text font-size="12" class="axis label" text-anchor="end" x="18" y="215.2585">0.0004</text>
			<text font-size="12" class="axis label" text-anchor="end" x="18" y="159.94813">0.0005</text>
			<text font-size="12" class="axis label" text-anchor="end" x="18" y="104.63775">0.0006</text>
			<text font-size="12" class="axis label" text-anchor="end" x="18" y="49.32738">0.0007</text>
		</g>
	</g>
	<g id="A" class="layer">
		<path d="M 125.72635 366.53209 C128.23402,364.25383 130.74169,362.04345 133.24937,359.90498 C134.5032,358.83575 135.75704,357.78449 137.01087,356.75062 C138.26471,355.71675 139.51855,354.70026 140.77238,353.69985 C142.02622,352.69944 143.28005,351.71511 144.53389,350.74484 C145.78773,349.77458 147.04156,348.81839 148.2954,347.87371 C149.54924,346.92902 150.80307,345.99585 152.05691,345.07119 C153.31074,344.14653 154.56458,343.23039 155.81842,342.31947 C157.07225,341.40854 158.32609,340.50284 159.57993,339.59887 C160.83376,338.6949 162.0876,337.79266 163.34143,336.88857 C164.59527,335.98448 165.84911,335.07855 167.10294,334.16717 C168.35678,333.25579 169.61061,332.33897 170.86445,331.41314 C172.11829,330.4873 173.37212,329.55246 174.62596,328.60509 C175.8798,327.65773 177.13363,326.69785 178.38747,325.72202 C179.6413,324.74619 180.89514,323.7544 182.14898,322.7433 C183.40281,321.7322 184.65665,320.70178 185.91049,319.64874 C187.16432,318.5957 188.41816,317.52004 189.67199,316.41853 C190.92583,315.31702 192.17967,314.18965 193.4335,313.03328 C194.68734,311.8769 195.94117,310.69151 197.19501,309.47406 C198.44885,308.25661 199.70268,307.00709 200.95652,305.7226 C202.21036,304.43811 203.46419,303.11865 204.71803,301.76153 C205.97186,300.40441 207.2257,299.00964 208.47954,297.57481 C209.73337,296.13999 210.98721,294.66513 212.24104,293.14823 C213.49488,291.63133 214.74872,290.07239 216.00255,288.46994 C217.25639,286.86748 218.51023,285.22151 219.76406,283.53113 C221.0179,281.84075 222.27173,280.10597 223.52557,278.3266 C224.77941,276.54724 226.03324,274.72329 227.28708,272.85537 C228.54092,270.98744 229.79475,269.07554 231.04859,267.12111 C232.30242,265.16667 233.55626,263.1697 234.8101,261.13254 C236.06393,259.09537 237.31777,257.018 238.5716,254.90364 C239.82544,252.78929 241.07928,250.63795 242.33311,248.45374 C243.58695,246.26952 244.84079,244.05243 246.09462,241.80739 C247.34846,239.56235 248.60229,237.28938 249.85613,234.99419 C251.10997,232.699 252.3638,230.3816 253.61764,228.04842 C254.87148,225.71525 256.12531,223.3663 257.37915,221.00866 C258.63298,218.65101 259.88682,216.28467 261.14066,213.91725 C262.39449,211.54983 263.64833,209.18133 264.90216,206.81982 C266.156,204.45832 267.40984,202.10381 268.66367,199.76475 C269.91751,197.42569 271.17135,195.10207 272.42518,192.80263 C273.67902,190.50318 274.93285,188.22791 276.18669,185.98574 C277.44053,183.74357 278.69436,181.53451 279.9482,179.3676 C281.20204,177.20068 282.45587,175.07592 283.70971,173.0024 C284.96354,170.92887 286.21738,168.90658 287.47122,166.94455 C288.72505,164.98252 289.97889,163.08075 291.23272,161.24813 C292.48656,159.41551 293.7404,157.65203 294.99423,155.96633 C296.24807,154.28063 297.50191,152.67271 298.75574,151.15084 C300.00958,149.62897 301.26341,148.19316 302.51725,146.85119 C303.77109,145.50922 305.02492,144.2611 306.27876,143.11402 C307.5326,141.96694 308.78643,140.92089 310.04027,139.98232 C311.2941,139.04376 312.54794,138.21267 313.80178,137.49462 C315.05561,136.77658 316.30945,136.17158 317.56328,135.68417 C318.81712,135.19676 320.07096,134.82694 321.32479,134.57812 C322.57863,134.3293 323.83247,134.20148 325.0863,134.19681 C326.34014,134.19214 327.59397,134.31062 328.84781,134.55305 C330.10165,134.79548 331.35548,135.16186 332.60932,135.65157 C333.86316,136.14129 335.11699,136.75434 336.37083,137.48865 C337.62466,138.22297 338.8785,139.07855 340.13234,140.05187 C341.38617,141.02518 342.64001,142.11624 343.89384,143.32008 C345.14768,144.52392 346.40152,145.84054 347.65535,147.26364 C348.90919,148.68674 350.16303,150.21633 351.41686,151.84484 C352.6707,153.47335 353.92453,155.20078 355.17837,157.0185 C356.43221,158.83622 357.68604,160.74421 358.93988,162.7329 C360.19372,164.72159 361.44755,166.79098 362.70139,168.93076 C363.95522,171.07053 365.20906,173.2807 366.4629,175.55042 C367.71673,177.82015 368.97057,180.14944 370.2244,182.52717 C371.47824,184.90491 372.73208,187.33109 373.98591,189.79455 C375.23975,192.258 376.49359,194.75873 377.74742,197.28571 C379.00126,199.8127 380.25509,202.36593 381.50893,204.93478 C382.76277,207.50363 384.0166,210.08808 385.27044,212.67805 C386.52428,215.26802 387.77811,217.86351 389.03195,220.45513 C390.28578,223.04676 391.53962,225.63452 392.79346,228.2099 C394.04729,230.78528 395.30113,233.34828 396.55496,235.89133 C397.8088,238.43437 399.06264,240.95746 400.31647,243.45405 C401.57031,245.95065 402.82415,248.42074 404.07798,250.85884 C405.33182,253.29695 406.58565,255.70308 407.83949,258.07281 C409.09333,260.44255 410.34716,262.7759 411.601,265.06951 C412.85484,267.36313 414.10867,269.61701 415.36251,271.82886 C416.61634,274.04071 417.87018,276.21052 419.12402,278.33697 C420.37785,280.46341 421.63169,282.5465 422.88552,284.58582 C424.13936,286.62515 425.3932,288.62071 426.64703,290.57296 C427.90087,292.52522 429.15471,294.43417 430.40854,296.30105 C431.66238,298.16792 432.91621,299.99272 434.17005,301.77738 C435.42389,303.56203 436.67772,305.30654 437.93156,307.01343 C439.18539,308.72032 440.43923,310.38959 441.69307,312.02429 C442.9469,313.659 444.20074,315.25913 445.45458,316.82814 C446.70841,318.39715 447.96225,319.93504 449.21608,321.44557 C450.46992,322.9561 451.72376,324.43927 452.97759,325.89902 C454.23143,327.35877 455.48527,328.79511 456.7391,330.21203 C457.99294,331.62896 459.24677,333.02647 460.50061,334.40852 C461.75445,335.79058 463.00828,337.15717 464.26212,338.51205 C465.51595,339.86694 466.76979,341.21011 468.02363,342.54501 C469.27746,343.87992 470.5313,345.20655 471.78514,346.52789 C473.03897,347.84924 474.29281,349.16531 475.54664,350.47853 C476.80048,351.79176 478.05432,353.10214 479.30815,354.41148 C480.56199,355.72082 481.81583,357.02911 483.06966,358.33744 C484.3235,359.64578 485.57733,360.95415 486.83117,362.26288 C488.08501,363.57162 489.33884,364.88071 490.59268,366.18978 C493.10035,368.8079 495.60802,371.4259 498.1157,374.03327" id="A" class="data density"/>
	</g>
	<g id="B" class="layer">
		<path d="M 50.454545 403.64169 C52.472012,402.27897 54.48948,400.83967 56.506948,399.28067 C57.515681,398.50117 58.524415,397.69174 59.533149,396.84641 C60.541883,396.00109 61.550617,395.11986 62.559351,394.1966 C63.568084,393.27334 64.576818,392.30805 65.585552,391.29464 C66.594286,390.28122 67.60302,389.21968 68.611753,388.10417 C69.620487,386.98866 70.629221,385.81919 71.637955,384.59035 C72.646689,383.36152 73.655423,382.07333 74.664156,380.72099 C75.67289,379.36865 76.681624,377.95216 77.690358,376.46742 C78.699092,374.98267 79.707825,373.42966 80.716559,371.80501 C81.725293,370.18035 82.734027,368.48404 83.742761,366.71337 C84.751495,364.9427 85.760228,363.09767 86.768962,361.17618 C87.777696,359.25469 88.78643,357.25675 89.795164,355.18075 C90.803897,353.10475 91.812631,350.95069 92.821365,348.71735 C93.830099,346.48401 94.838833,344.17139 95.847567,341.77853 C96.8563,339.38566 97.865034,336.91255 98.873768,334.35841 C99.882502,331.80426 100.89124,329.16908 101.89997,326.4522 C102.9087,323.73533 103.91744,320.93677 104.92617,318.05602 C105.9349,315.17527 106.94364,312.21234 107.95237,309.16699 C108.96111,306.12165 109.96984,302.99389 110.97857,299.78393 C111.98731,296.57397 112.99604,293.2818 114.00478,289.9083 C115.01351,286.53479 116.02224,283.07996 117.03098,279.54562 C118.03971,276.01128 119.04844,272.39743 120.05718,268.70717 C121.06591,265.01691 122.07465,261.25023 123.08338,257.4118 C124.09211,253.57336 125.10085,249.66318 126.10958,245.68774 C127.11831,241.7123 128.12705,237.67161 129.13578,233.57424 C130.14452,229.47687 131.15325,225.32282 132.16198,221.12283 C133.17072,216.92284 134.17945,212.67691 135.18819,208.39798 C136.19692,204.11905 137.20565,199.80712 138.21439,195.47719 C139.22312,191.14725 140.23185,186.79931 141.24059,182.45016 C142.24932,178.10101 143.25806,173.75066 144.26679,169.41728 C145.27552,165.08391 146.28426,160.76751 147.29299,156.48714 C148.30172,152.20678 149.31046,147.96245 150.31919,143.77342 C151.32793,139.5844 152.33666,135.45068 153.34539,131.39106 C154.35413,127.33145 155.36286,123.34594 156.3716,119.4521 C157.38033,115.55826 158.38906,111.7561 159.3978,108.06124 C160.40653,104.36637 161.41526,100.7788 162.424,97.311557 C163.43273,93.844309 164.44147,90.497379 165.4502,87.280646 C166.45893,84.063913 167.46767,80.977377 168.4764,78.027404 C169.48514,75.077432 170.49387,72.264023 171.5026,69.589873 C172.51134,66.915723 173.52007,64.380832 174.5288,61.984301 C175.53754,59.587771 176.54627,57.329601 177.55501,55.205631 C178.56374,53.08166 179.57247,51.09189 180.58121,49.229473 C181.58994,47.367056 182.59867,45.631992 183.60741,44.015552 C184.61614,42.399112 185.62488,40.901294 186.63361,39.512458 C187.64234,38.123621 188.65108,36.843766 189.65981,35.663424 C190.66855,34.483082 191.67728,33.402253 192.68601,32.412752 C193.69475,31.423251 194.70348,30.525078 195.71221,29.712379 C196.72095,28.899681 197.72968,28.172456 198.73842,27.528071 C199.74715,26.883686 200.75588,26.32214 201.76462,25.84466 C202.77335,25.367181 203.78208,24.973767 204.79082,24.669831 C205.79955,24.365894 206.80829,24.151434 207.81702,24.035998 C208.82575,23.920562 209.83449,23.904149 210.84322,24 C211.85196,24.095851 212.86069,24.303965 213.86942,24.640455 C214.87816,24.976945 215.88689,25.441809 216.89562,26.052871 C217.90436,26.663933 218.91309,27.421192 219.92183,28.342764 C220.93056,29.264336 221.93929,30.350221 222.94803,31.617254 C223.95676,32.884286 224.9655,34.332468 225.97423,35.975747 C226.98296,37.619026 227.9917,39.457403 229.00043,41.500435 C230.00916,43.543466 231.0179,45.791152 232.02663,48.247368 C233.03537,50.703585 234.0441,53.368333 235.05283,56.238856 C236.06157,59.109379 237.0703,62.185677 238.07903,65.457827 C239.08777,68.729977 240.0965,72.197979 241.10524,75.844673 C242.11397,79.491367 243.1227,83.316754 244.13144,87.296853 C245.14017,91.276951 246.14891,95.41176 247.15764,99.671346 C248.16637,103.93093 249.17511,108.3153 250.18384,112.78981 C251.19257,117.26432 252.20131,121.82898 253.21004,126.44604 C254.21878,131.0631 255.22751,135.73256 256.23624,140.41529 C257.24498,145.09801 258.25371,149.79401 259.26244,154.46458 C260.27118,159.13516 261.27991,163.78032 262.28865,168.36358 C263.29738,172.94684 264.30611,177.4682 265.31485,181.89496 C266.32358,186.32172 267.33232,190.65388 268.34105,194.86386 C269.34978,199.07384 270.35852,203.16163 271.36725,207.10572 C272.37598,211.04982 273.38472,214.85023 274.39345,218.49214 C275.40219,222.13404 276.41092,225.61744 277.41965,228.93441 C278.42839,232.25139 279.43712,235.40194 280.44585,238.38488 C281.45459,241.36783 282.46332,244.18317 283.47206,246.83596 C284.48079,249.48876 285.48952,251.979 286.49826,254.31721 C287.50699,256.65543 288.51573,258.84162 289.52446,260.89079 C290.53319,262.93996 291.54193,264.85211 292.55066,266.64564 C293.55939,268.43917 294.56813,270.11409 295.57686,271.69102 C296.5856,273.26794 297.59433,274.74688 298.60306,276.14957 C299.6118,277.55226 300.62053,278.8787 301.62927,280.15067 C302.638,281.42264 303.64673,282.64014 304.65547,283.82409 C305.6642,285.00803 306.67293,286.15842 307.68167,287.29451 C308.6904,288.43061 309.69914,289.55242 310.70787,290.67698 C311.7166,291.80153 312.72534,292.92884 313.73407,294.07331 C314.7428,295.21777 315.75154,296.37939 316.76027,297.56971 C317.76901,298.76003 318.77774,299.97905 319.78647,301.23536 C320.79521,302.49167 321.80394,303.78528 322.81268,305.1219 C323.82141,306.45852 324.83014,307.83815 325.83888,309.26379 C326.84761,310.68942 327.85634,312.16106 328.86508,313.67922 C329.87381,315.19737 330.88255,316.76204 331.89128,318.37155 C332.90001,319.98105 333.90875,321.63539 334.91748,323.331 C335.92621,325.02662 336.93495,326.7635 337.94368,328.53655 C338.95242,330.30959 339.96115,332.11879 340.96988,333.95779 C341.97862,335.79679 342.98735,337.66558 343.99609,339.55689 C346.01355,343.33951 348.03102,347.2122 350.04849,351.11059" id="B" class="data density"/>
	</g>
	<g id="X" class="layer">
		<path d="M 85.941693 395.91484 C89.265624,394.00235 92.589555,392.00343 95.913487,389.89027 C97.575452,388.83369 99.237418,387.74855 100.89938,386.63077 C102.56135,385.51299 104.22331,384.36257 105.88528,383.17524 C107.54725,381.98791 109.20921,380.76366 110.87118,379.49824 C112.53314,378.23283 114.19511,376.92623 115.85707,375.57451 C117.51904,374.22278 119.181,372.82593 120.84297,371.3806 C122.50493,369.93526 124.1669,368.44144 125.82887,366.89668 C127.49083,365.35192 129.1528,363.75622 130.81476,362.10826 C132.47673,360.4603 134.13869,358.76009 135.80066,357.00768 C137.46262,355.25528 139.12459,353.45068 140.78656,351.59548 C142.44852,349.74028 144.11049,347.83447 145.77245,345.88125 C147.43442,343.92803 149.09638,341.9274 150.75835,339.88417 C152.42031,337.84094 154.08228,335.75511 155.74425,333.63304 C157.40621,331.51096 159.06818,329.35263 160.73014,327.1658 C162.39211,324.97897 164.05407,322.76363 165.71604,320.5287 C167.378,318.29378 169.03997,316.03925 170.70194,313.77496 C172.3639,311.51066 174.02587,309.23659 175.68783,306.96314 C177.3498,304.68969 179.01176,302.41687 180.67373,300.15532 C182.33569,297.89378 183.99766,295.64351 185.65963,293.41507 C187.32159,291.18663 188.98356,288.98003 190.64552,286.80537 C192.30749,284.63072 193.96945,282.48802 195.63142,280.38664 C197.29338,278.28525 198.95535,276.22519 200.61731,274.21478 C202.27928,272.20438 203.94125,270.24362 205.60321,268.33956 C207.26518,266.43551 208.92714,264.58815 210.58911,262.80307 C212.25107,261.018 213.91304,259.2952 215.575,257.63863 C217.23697,255.98206 218.89894,254.39173 220.5609,252.86988 C222.22287,251.34804 223.88483,249.89469 225.5468,248.51035 C227.20876,247.12602 228.87073,245.8107 230.53269,244.56322 C232.19466,243.31575 233.85663,242.13612 235.51859,241.02156 C237.18056,239.907 238.84252,238.8575 240.50449,237.86882 C242.16645,236.88014 243.82842,235.95228 245.49038,235.07971 C247.15235,234.20713 248.81432,233.38986 250.47628,232.62131 C252.13825,231.85277 253.80021,231.13296 255.46218,230.45456 C257.12414,229.77616 258.78611,229.13918 260.44807,228.53583 C262.11004,227.93249 263.772,227.36278 265.43397,226.81881 C267.09594,226.27485 268.7579,225.75662 270.41987,225.25644 C272.08183,224.75626 273.7438,224.27413 275.40576,223.80289 C277.06773,223.33166 278.72969,222.87132 280.39166,222.41558 C282.05363,221.95984 283.71559,221.50869 285.37756,221.057 C287.03952,220.60531 288.70149,220.15306 290.36345,219.69649 C292.02542,219.23993 293.68738,218.77905 295.34935,218.31167 C297.01132,217.84429 298.67328,217.37042 300.33525,216.88959 C301.99721,216.40876 303.65918,215.92098 305.32114,215.42758 C306.98311,214.93417 308.64507,214.43515 310.30704,213.93361 C311.96901,213.43208 313.63097,212.92804 315.29294,212.42633 C316.9549,211.92461 318.61687,211.42522 320.27883,210.93456 C321.9408,210.44389 323.60276,209.96195 325.26473,209.49649 C326.92669,209.03103 328.58866,208.58206 330.25063,208.15841 C331.91259,207.73477 333.57456,207.33645 335.23652,206.9731 C336.89849,206.60974 338.56045,206.28134 340.22242,205.99794 C341.88438,205.71454 343.54635,205.47615 345.20832,205.29287 C346.87028,205.10959 348.53225,204.98141 350.19421,204.91814 C351.85618,204.85487 353.51814,204.8565 355.18011,204.93213 C356.84207,205.00777 358.50404,205.15741 360.16601,205.38917 C361.82797,205.62093 363.48994,205.9348 365.1519,206.33759 C366.81387,206.74038 368.47583,207.2321 370.1378,207.81803 C371.79976,208.40395 373.46173,209.08409 375.1237,209.86204 C376.78566,210.64 378.44763,211.51577 380.10959,212.49118 C381.77156,213.46659 383.43352,214.54165 385.09549,215.71639 C386.75745,216.89113 388.41942,218.16555 390.08139,219.53795 C391.74335,220.91034 393.40532,222.38072 395.06728,223.94573 C396.72925,225.51075 398.39121,227.1704 400.05318,228.91989 C401.71514,230.66938 403.37711,232.5087 405.03907,234.43176 C406.70104,236.35483 408.36301,238.36164 410.02497,240.44504 C411.68694,242.52844 413.3489,244.68844 415.01087,246.91703 C416.67283,249.14562 418.3348,251.4428 419.99676,253.79993 C421.65873,256.15705 423.3207,258.57412 424.98266,261.04202 C426.64463,263.50993 428.30659,266.02867 429.96856,268.58882 C431.63052,271.14898 433.29249,273.75056 434.95445,276.38395 C436.61642,279.01734 438.27839,281.68255 439.94035,284.36988 C441.60232,287.05721 443.26428,289.76666 444.92625,292.48852 C446.58821,295.21037 448.25018,297.94464 449.91214,300.68161 C451.57411,303.41859 453.23608,306.15828 454.89804,308.89108 C456.56001,311.62387 458.22197,314.34976 459.88394,317.05926 C461.5459,319.76877 463.20787,322.46188 464.86983,325.1293 C466.5318,327.79673 468.19376,330.43846 469.85573,333.04549 C471.5177,335.65251 473.17966,338.22483 474.84163,340.75381 C476.50359,343.28279 478.16556,345.76842 479.82752,348.20262 C481.48949,350.63682 483.15145,353.01958 484.81342,355.34349 C486.47539,357.6674 488.13735,359.93246 489.79932,362.13213 C491.46128,364.33179 493.12325,366.46605 494.78521,368.52941 C496.44718,370.59277 498.10914,372.58522 499.77111,374.50247 C501.43308,376.41971 503.09504,378.26175 504.75701,380.02563 C506.41897,381.7895 508.08094,383.47522 509.7429,385.08128 C511.40487,386.68734 513.06683,388.21375 514.7288,389.66052 C516.39077,391.10729 518.05273,392.47443 519.7147,393.76348 C521.37666,395.05253 523.03863,396.26349 524.70059,397.39937 C526.36256,398.53525 528.02452,399.59605 529.68649,400.58613 C531.34845,401.57622 533.01042,402.49558 534.67239,403.34977 C536.33435,404.20396 537.99632,404.99297 539.65828,405.7233 C541.32025,406.45364 542.98221,407.1253 544.64418,407.74549 C546.30614,408.36568 547.96811,408.93439 549.63008,409.45926 C551.29204,409.98413 552.95401,410.46515 554.61597,410.91007 C556.27794,411.35499 557.9399,411.76382 559.60187,412.14415 C561.26383,412.52448 562.9258,412.87632 564.58777,413.20683 C566.24973,413.53734 567.9117,413.84653 569.57366,414.14097 C572.89759,414.72987 576.22152,415.25981 579.54546,415.77484" id="X" class="data density"/>
	</g>
	<g id="axis titles" class="layer">
		<text font-size="12" class="axis title" text-anchor="middle" x="606" y="426">Area</text>
	</g>
	<g id="legend" class="layer">
		<g id="A row">
			<line id="A" class="data legend" x1="550" x2="600" y1="19" y2="19"/>
			<text font-size="12" class="legend label" text-anchor="start" x="603" y="22">A</text>
		</g>
		<g id="B row">
			<line id="B" class="data legend" x1="550" x2="600" y1="34" y2="34"/>
			<text font-size="12" class="legend label" text-anchor="start" x="603" y="37">B</text>
		</g>
		<g id="X row">
			<line id="X" class="data legend" x1="550" x2="600" y1="49" y2="49"/>
			<text font-size="12" class="legend label" text-anchor="start" x="603" y="52">X</text>
		</g>
	</g>
</svg>
