<?xml version='1.0' encoding='UTF-8'?>
<!DOCTYPE svg PUBLIC "-//W3C//DTD SVG 1.0//EN" "http://www.w3.org/TR/2001/REC-SVG-20010904/DTD/svg10.dtd ">
<svg height="480" viewBox="0 0 640 480" width="640" xmlns:xlink="http://www.w3.org/1999/xlink" xmlns="http://www.w3.org/2000/svg" >
	<defs>
		<title>cauloModel</title>
		<style type="text/css">
			<![CDATA[
				.data {
					fill: none;
					stroke: black;
					stroke-linecap: round;
					stroke-width: 1.5;
				}
				[id~="position--1"] {
					stroke: rgb(58,0,212);
				}
				[id~="position--2"] {
					stroke: rgb(0,0,0);
				}
				[id~="position-0"] {
					stroke: rgb(162,35,127);
				}
				[id~="position-1"] {
					stroke: rgb(255,83,0);
				}
				[id~="position-2"] {
					stroke: rgb(255,150,0);
				}
				line.axis {
					stroke: dimgrey;
					stroke-width: 0.75;
				}
				line.colorbar.tic {
					stroke: black;
					stroke-linecap: butt;
					stroke-width: 0.5;
				}
				line.scalebar {
					stroke: black;
					stroke-width: 0.75;
				}
				line.tic {
					stroke-linecap: round;
				}
				rect.colorbar {
					fill: none;
					stroke: black;
					stroke-width: 0.5;
				}
				rect.plot {
					fill: none;
					stroke: none;
				}
				text {
					font-family: Times;
				}
				text.axis {
					fill: dimgrey;
				}
				text.colorbar.label {
					fill: black;
				}
				text.label {
					font-weight: normal;
				}
				text.title {
					font-weight: bold;
				}
			]]>
		</style>
	</defs>
	<g id="Shape Mode 1" class="layer">
		<path d="M 189.35261 254.44371 C191.1553,254.06652 192.90729,253.9893 194.66969,253.67774 C196.4321,253.36618 198.20492,252.82029 199.99526,252.37848 C202.68076,251.71577 205.40567,251.28724 208.04549,250.55944 C213.32515,249.10383 218.26451,246.45112 222.68054,243.06644 C224.88856,241.3741 226.96575,239.49877 228.22593,237.19957 C229.48611,234.90037 229.92929,232.17731 230.22795,229.47955 C230.42705,227.68105 230.56193,225.8938 230.04431,223.61164 C229.78549,222.47057 229.36356,221.20577 228.79762,220.01222 C227.09981,216.43157 224.10601,213.49217 220.93171,211.56746 C216.6993,209.00119 212.146,208.23881 208.10617,207.84572 C206.08626,207.64917 204.19471,207.54495 202.24689,207.51697 C201.27298,207.50298 200.28501,207.50806 199.31815,207.56424 C196.4176,207.73278 193.70715,208.36125 190.87753,208.54107 C188.99112,208.66095 187.05174,208.58144 185.18662,208.8202 C184.25406,208.93958 183.34007,209.13852 182.43004,209.29337 C179.69995,209.75789 177.00551,209.82548 174.21999,209.78403 C171.43447,209.74258 168.55788,209.59209 165.78557,209.43447 C163.93737,209.32938 162.13551,209.22114 160.2738,209.31202 C159.34294,209.35746 158.39713,209.45268 157.45095,209.5227 C154.61243,209.73275 151.77068,209.71593 149.05116,209.51861 C147.23814,209.38706 145.47945,209.1753 143.6118,209.12473 C141.74415,209.07416 139.76754,209.18478 137.82353,209.15917 C134.90752,209.12075 132.06485,208.77581 129.02162,209.02577 C125.97838,209.27573 122.73458,210.1206 119.50466,211.53406 C117.35138,212.47636 115.20427,213.67137 113.28055,215.50742 C112.31869,216.42545 111.41268,217.50374 110.68725,218.61987 C108.51096,221.96826 107.95988,225.6572 108.2909,228.70794 C108.62193,231.75869 109.83507,234.17125 110.91298,236.68488 C111.63159,238.36063 112.29011,240.0813 113.44038,241.47029 C114.01552,242.16479 114.7136,242.77636 115.45775,243.32681 C117.6902,244.97815 120.33726,246.07935 122.81737,247.30677 C126.12419,248.94333 129.13419,250.80427 132.70484,251.6135 C134.49017,252.01812 136.41566,252.15981 138.2496,252.28518 C139.16657,252.34787 140.06066,252.40647 140.94355,252.54669 C143.59221,252.96736 146.14007,254.12255 148.75128,254.71286 C151.36249,255.30317 154.03705,255.3286 156.75242,255.68168 C159.46779,256.03476 162.22397,256.7155 164.96808,257.02282 C167.71219,257.33015 170.44423,257.26406 173.18091,256.94849 C175.9176,256.63293 178.65893,256.06788 181.32227,255.76142 C183.09784,255.55711 184.83874,255.46773 186.63774,255.0865 C187.53724,254.89588 188.45126,254.6323 189.35261,254.44371" id="mode-1 position--2" class="data contour"/>
		<path d="M 196.8379 258.24755 C205.44481,256.62387 213.99767,254.64144 222.11992,251.36625 C229.08186,248.55894 235.72743,244.80184 241.36867,239.81497 C244.18929,237.32154 246.75883,234.52066 248.57759,231.26736 C250.39636,228.01405 251.46434,224.30832 251.18865,220.56125 C250.91295,216.81419 249.29356,213.02579 246.46882,210.50385 C243.64408,207.98191 239.61398,206.72642 235.69782,206.16482 C226.56011,204.85439 218.0427,207.32173 209.49149,209.65348 C202.16188,211.65212 194.80743,213.55114 187.325,214.72805 C179.84258,215.90497 172.23218,216.35977 164.6421,216.17501 C157.05202,215.99024 149.48225,215.1659 142.06722,213.77921 C133.41635,212.16142 124.97608,209.77822 116.2654,208.04385 C112.53226,207.30054 108.74945,206.67641 104.86969,206.79775 C100.98993,206.91909 97.013224,207.7859 93.692271,209.97891 C91.478302,211.44091 89.55578,213.49234 88.533156,215.8444 C88.021844,217.02043 87.735507,218.27162 87.613253,219.5277 C87.246493,223.29595 88.356488,227.10827 89.971469,230.57541 C91.58645,234.04254 93.706417,237.16451 96.405404,239.73901 C99.104391,242.31351 102.3824,244.34054 105.64461,246.29009 C109.99423,248.88949 114.31578,251.35113 119.03323,252.96845 C122.57132,254.18144 126.33211,254.9195 129.9622,255.79529 C132.38226,256.37915 134.74424,257.02422 137.16109,257.64111 C138.36952,257.94956 139.59166,258.25096 140.81763,258.51256 C144.49552,259.29737 148.20779,259.724 151.94891,260.09631 C159.43114,260.84092 167.02876,261.36825 174.53611,261.06784 C182.04346,260.76743 189.46054,259.63927 196.8379,258.24755 z" id="mode-1 position--1" class="data contour"/>
		<path d="M 204.32655 262.02077 C224.7492,258.12455 244.79726,250.7587 259.97619,236.56071 C263.47902,233.28426 266.72255,229.64396 269.04442,225.36365 C271.36629,221.08335 272.7665,216.16305 272.04118,211.53017 C271.55763,208.44158 270.1294,205.48074 267.89349,203.4556 C266.77554,202.44304 265.45567,201.66439 264.06993,201.10427 C259.91274,199.42388 255.16283,199.71011 250.57327,200.55214 C239.8643,202.51686 230.02838,207.50756 219.68222,211.64013 C210.81408,215.18233 201.57108,218.09406 192.14241,220.10633 C182.71374,222.1186 173.0994,223.2314 163.48752,222.84948 C153.87563,222.46756 144.26619,220.59091 135.0179,218.04244 C124.22822,215.06922 113.9301,211.18158 103.53747,206.90371 C94.629492,203.23696 85.652077,199.28352 76.708778,201.56692 C73.727678,202.32805 70.750369,203.78217 68.870083,206.18696 C67.92994,207.38936 67.264054,208.82943 66.873171,210.32955 C65.700523,214.82992 67.002913,219.87074 69.084672,224.34687 C73.24819,233.29912 80.529183,239.99259 88.519936,245.33363 C105.83323,256.90589 126.47846,262.12929 147.18775,264.27592 C166.30402,266.25742 185.47487,265.61728 204.32655,262.02077 z" id="mode-1 position-0" class="data contour"/>
		<path d="M 211.84273 265.83884 C236.57612,261.01447 260.67231,250.79684 278.67452,233.2046 C282.82888,229.14485 286.6587,224.69237 289.43065,219.50017 C292.2026,214.30797 293.91668,208.37606 292.89962,202.60041 C292.22157,198.74997 290.3297,194.96899 287.09334,193.1731 C285.47516,192.27516 283.52087,191.87349 281.61356,191.7092 C275.89164,191.21634 270.59262,192.85991 265.42326,194.998 C253.36142,199.98688 242.0055,207.6681 229.83262,213.6509 C219.39871,218.77902 208.36459,222.65932 196.99354,225.47928 C185.62249,228.29923 173.91453,230.05885 162.2945,229.50825 C150.67447,228.95765 139.14237,226.09683 128.02595,222.34897 C115.0568,217.97646 102.65344,212.39659 90.781027,205.72131 C80.604674,199.99964 70.818409,193.47319 59.58195,193.03366 C55.836464,192.88716 51.929845,193.41697 49.181789,196.12702 C47.80776,197.48204 46.723373,199.38212 46.057289,201.29195 C44.059038,207.02145 45.825525,212.83877 48.386698,218.1557 C53.509043,228.78956 61.81013,237.42187 71.347253,244.22492 C77.705335,248.76028 84.612767,252.48264 91.683397,255.72422 C96.986369,258.15541 102.38114,260.31617 107.93252,262.10171 C119.03528,265.67279 130.76447,267.74303 142.36376,268.56423 C148.1634,268.97483 153.93057,269.07316 159.73952,269.18616 C165.54846,269.29916 171.39918,269.42682 177.22484,269.33229 C188.87618,269.14324 200.42732,268.06547 211.84273,265.83884 z" id="mode-1 position-1" class="data contour"/>
		<path d="M 219.373 269.57935 C223.87448,268.6982 228.37086,267.65092 232.76637,266.43268 C237.16188,265.21445 241.45653,263.82525 245.71527,262.2469 C252.10338,259.87937 258.41072,257.08624 264.47925,253.89788 C276.61631,247.52117 287.79816,239.56356 297.35047,229.89329 C302.12663,225.05815 306.4954,219.79484 309.80033,213.62811 C313.10525,207.46139 315.34633,200.39124 313.81815,193.60346 C312.79937,189.07827 310.10535,184.67859 306.03411,183.08433 C303.99849,182.2872 301.61856,182.19144 299.30314,182.36155 C292.35689,182.8719 285.99122,185.77523 280.15049,189.33427 C276.25667,191.70696 272.59616,194.37108 268.85662,196.9503 C265.11708,199.52951 261.29851,202.02382 257.48972,204.56045 C251.77655,208.3654 246.08541,212.26558 240.05721,215.6125 C234.02901,218.95942 227.66374,221.75307 221.31513,224.44382 C217.08272,226.23764 212.85772,227.98574 208.46657,229.15997 C206.271,229.74709 204.03389,230.19074 201.8095,230.71992 C197.36073,231.77828 192.96282,233.17878 188.45494,234.0252 C186.201,234.44841 183.91956,234.73311 181.6387,235.00795 C174.79613,235.83249 167.95877,236.56842 161.12393,236.27925 C154.28909,235.99008 147.45677,234.67581 140.75752,232.96745 C134.05827,231.25909 127.49209,229.15664 121.03129,226.70206 C105.95609,220.9747 91.454626,213.33017 78.01167,204.53954 C72.250403,200.77212 66.683556,196.7942 60.953238,192.94891 C55.222921,189.10362 49.329135,185.39097 42.498422,184.25326 C37.944614,183.49479 32.974394,183.88074 29.511451,186.59905 C27.77998,187.95821 26.425328,189.90045 25.500267,192.0168 C23.650144,196.2495 23.518381,201.17863 24.792294,205.6335 C25.42925,207.86094 26.417626,209.96981 27.49038,212.02294 C33.926909,224.34172 43.401094,234.65372 54.141339,243.24398 C55.93138,244.67569 57.756589,246.05957 59.682805,247.30191 C61.60902,248.54424 63.636242,249.64503 65.70248,250.6871 C67.768717,251.72918 69.873969,252.71254 71.937297,253.77945 C74.000624,254.84636 76.022027,255.99682 78.059717,257.08586 C84.172788,260.35298 90.432442,263.06738 96.934321,265.24634 C109.93808,269.60426 123.91073,271.82043 137.58518,272.79354 C144.4224,273.28009 151.18507,273.45588 157.99939,273.34641 C162.54228,273.27344 167.10812,273.07368 171.68618,273.19845 C173.9752,273.26083 176.26729,273.40435 178.55598,273.47492 C185.42208,273.68662 192.2577,273.24182 199.05738,272.54544 C205.85705,271.84906 212.62077,270.90109 219.373,269.57935 z" id="mode-1 position-2" class="data contour"/>
		<text font-size="14" class="shapemode label" text-anchor="middle" x="169.06472" y="454.5">Shape Mode 1</text>
		<text font-size="12" class="shapemode label" text-anchor="middle" x="169.06472" y="467"> (91.3% of total variance)</text>
	</g>
	<g id="Shape Mode 2" class="layer">
		<path d="M 533.67002 262.51888 C536.83195,261.4589 539.90551,260.38742 542.86602,259.00566 C545.82652,257.6239 548.67398,255.93186 551.57194,254.35166 C555.91887,251.98136 560.37944,249.86269 564.53305,247.16153 C568.68665,244.46037 572.53329,241.17671 576.04073,237.67703 C579.54817,234.17735 582.71642,230.46166 585.55828,226.39813 C591.24199,218.27107 595.62017,208.75264 594.79345,198.7171 C594.51788,195.37193 593.66399,191.96929 591.49514,190.02134 C590.41072,189.04736 588.99755,188.43705 587.55774,188.06388 C583.23832,186.94436 578.67911,187.95905 574.57338,189.89698 C571.83622,191.18893 569.3006,192.89121 566.70448,194.62917 C564.10836,196.36713 561.45174,198.14077 558.9467,200.22772 C556.44166,202.31468 554.0882,204.71495 551.37178,206.43921 C550.01357,207.30134 548.56462,207.99447 547.13431,208.75755 C542.84336,211.04681 538.72013,213.96567 534.30099,216.30825 C529.88186,218.65083 525.16682,220.41712 520.53628,222.15117 C517.44925,223.3072 514.39977,224.4489 511.21,225.05382 C509.61512,225.35628 507.98517,225.52454 506.34803,225.67835 C501.43659,226.13979 496.46043,226.47117 491.59169,226.06309 C488.34587,225.79103 485.14779,225.19033 481.91546,224.74459 C480.29929,224.52172 478.67456,224.3376 477.10043,223.91178 C473.95217,223.06016 471.00631,221.2418 467.8941,220.13351 C466.33799,219.57936 464.74029,219.20273 463.24216,218.59568 C460.24588,217.38158 457.64786,215.24581 454.8494,213.52861 C452.05095,211.8114 449.05208,210.51277 446.21621,208.82186 C441.9624,206.28551 438.07536,202.86655 434.11965,199.97659 C430.16393,197.08663 426.13955,194.72567 422.07958,192.39167 C418.0196,190.05768 413.92403,187.75064 409.25719,188.3191 C406.14596,188.69807 402.78084,190.35504 401.08566,193.13311 C400.23807,194.52215 399.80796,196.19146 399.6031,197.84489 C399.19338,201.15174 399.68462,204.39507 400.44052,207.60248 C400.81847,209.20619 401.26258,210.80092 401.79553,212.35682 C404.99321,221.69223 411.38897,229.62991 418.35728,236.90506 C420.68005,239.33011 423.06644,241.68154 425.68837,243.71457 C428.31031,245.74759 431.1678,247.46221 433.96555,249.18688 C436.7633,250.91154 439.50132,252.64626 442.37666,254.18397 C443.81433,254.95282 445.28634,255.67243 446.77695,256.34492 C455.72062,260.37987 465.33416,262.71874 475.05997,264.85136 C479.92287,265.91767 484.81383,266.93242 489.79494,267.46244 C491.45531,267.63912 493.1257,267.76194 494.77932,267.90504 C496.43295,268.04814 498.06981,268.21153 499.70608,268.25436 C501.34235,268.2972 502.97803,268.2195 504.61708,268.1023 C507.89516,267.8679 511.18671,267.47553 514.4991,267.15235 C516.1553,266.99076 517.8167,266.84646 519.43064,266.49431 C521.04457,266.14216 522.61104,265.58214 524.17851,265.14896 C525.74599,264.71579 527.31447,264.40944 528.90024,263.99271 C530.48601,263.57599 532.08906,263.04887 533.67002,262.51888 z" id="mode-2 position--2" class="data contour"/>
		<path d="M 533.1605 259.96839 C539.37083,258.27711 545.40674,256.11231 551.38827,253.60696 C555.87441,251.72795 560.32996,249.65739 564.55736,247.28587 C573.01216,242.54282 580.55439,236.59596 586.93231,229.145 C593.31023,221.69403 598.52385,212.73896 597.5122,202.91101 C597.17499,199.63503 596.14608,196.26206 593.92012,194.3026 C592.80714,193.32287 591.39489,192.69652 589.95377,192.27015 C585.63041,190.99107 581.04713,191.51188 576.70636,192.84976 C570.91867,194.6336 565.56212,197.87 560.0954,201.00767 C555.99536,203.36092 551.83335,205.65864 547.54638,207.85861 C538.97244,212.25854 529.89868,216.26744 520.51402,218.8672 C511.12935,221.46695 501.43377,222.65756 491.70847,222.15214 C486.84582,221.89942 481.97575,221.2227 477.23774,220.13362 C472.49973,219.04455 467.89378,217.54311 463.37353,215.86251 C457.34653,213.62172 451.47186,211.06243 445.70961,208.08437 C441.38791,205.85083 437.12945,203.38172 432.93116,201.10558 C428.73286,198.82944 424.59475,196.74627 420.32055,194.96433 C416.04635,193.18239 411.63607,191.70167 407.06436,192.53368 C404.01656,193.08834 400.89701,194.67089 399.14064,197.3057 C398.26246,198.6231 397.72508,200.20358 397.42098,201.79865 C396.50871,206.58388 397.69608,211.50056 399.59179,216.02844 C403.38323,225.0842 410.00807,232.58477 417.5537,238.78408 C426.35693,246.0166 436.41345,251.47794 447.01889,255.34502 C456.10926,258.65966 465.60292,260.803 475.23851,262.29167 C484.87409,263.78034 494.6516,264.61435 504.39433,264.29559 C514.13705,263.97684 523.845,262.50532 533.1605,259.96839" id="mode-2 position--1" class="data contour"/>
		<path d="M 532.6129 257.37297 C553.03555,253.47675 573.08361,246.11089 588.26254,231.91291 C591.76537,228.63645 595.0089,224.99615 597.33077,220.71585 C599.65264,216.43554 601.05285,211.51524 600.32752,206.88236 C599.84398,203.79377 598.41575,200.83293 596.17984,198.8078 C595.06189,197.79523 593.74201,197.01659 592.35628,196.45646 C588.19909,194.77607 583.44918,195.06231 578.85962,195.90433 C568.15065,197.86906 558.31473,202.85976 547.96857,206.99232 C539.10043,210.53452 529.85743,213.44625 520.42876,215.45852 C511.00009,217.47079 501.38575,218.58359 491.77387,218.20167 C482.16198,217.81975 472.55254,215.9431 463.30424,213.39463 C452.51457,210.42141 442.21645,206.53377 431.82381,202.2559 C422.91584,198.58916 413.93843,194.63572 404.99513,196.91911 C402.01403,197.68025 399.03672,199.13436 397.15643,201.53916 C396.21629,202.74156 395.5504,204.18163 395.15952,205.68175 C393.98687,210.18211 395.28926,215.22294 397.37102,219.69906 C401.53454,228.65132 408.81553,235.34478 416.80629,240.68582 C434.11958,252.25808 454.76481,257.48149 475.4741,259.62811 C494.59037,261.60961 513.76122,260.96948 532.6129,257.37297" id="mode-2 position-0" class="data contour"/>
		<path d="M 532.14178 254.93548 C552.56335,252.61242 573.09449,247.02901 589.63861,234.61776 C593.45649,231.75363 597.06204,228.52588 599.65525,224.4694 C602.24846,220.41292 603.82934,215.5277 603.07334,210.99111 C602.56933,207.96672 601.02672,205.09727 598.6919,203.09392 C597.52448,202.09224 596.15902,201.30709 594.73761,200.69645 C590.47336,198.86455 585.70555,198.60331 580.96069,198.86541 C574.63421,199.21488 568.34852,200.49473 562.17011,202.13064 C557.53631,203.35758 552.96284,204.78481 548.35752,206.07459 C539.14689,208.65415 529.80886,210.6839 520.36267,212.11567 C510.91649,213.54744 501.36214,214.38122 491.82142,214.18117 C482.2807,213.98113 472.7536,212.74726 463.31814,210.96817 C452.3101,208.89255 441.42679,206.07482 430.65514,203.25719 C426.03871,202.04963 421.44279,200.84209 416.72569,200.19031 C412.00859,199.53853 407.1703,199.44251 402.75557,200.88598 C398.34084,202.32946 394.34968,205.31244 392.96198,209.59913 C392.03684,212.45692 392.2688,215.89414 393.25543,219.02318 C393.74875,220.5877 394.43073,222.07518 395.19919,223.4938 C399.80994,232.00553 407.53384,238.0385 415.95597,242.54486 C425.78178,247.80228 436.55793,250.98181 447.42376,253.42453 C452.08054,254.4714 456.75379,255.38295 461.4584,255.97876 C466.16301,256.57456 470.89899,256.85464 475.62574,256.9979 C485.07924,257.28443 494.49583,257.02371 503.90513,256.70452 C513.31443,256.38533 522.71643,256.00766 532.14178,254.93548 z" id="mode-2 position-1" class="data contour"/>
		<path d="M 531.62976 252.25569 C537.97121,251.97568 544.37219,251.80944 550.67155,250.94558 C555.39607,250.29769 560.06343,249.2574 564.61569,248.03445 C569.16795,246.8115 573.60512,245.4059 578.04421,243.65317 C582.48331,241.90044 586.92434,239.80058 591.09427,237.31331 C595.2642,234.82604 599.16303,231.95136 601.95298,228.20862 C603.81295,225.71347 605.18008,222.83251 605.76073,219.7264 C606.05105,218.17334 606.14475,216.564 605.91267,215.02212 C605.68059,213.48025 605.12274,212.00585 604.29345,210.72659 C603.46416,209.44734 602.36344,208.36324 601.12307,207.43177 C599.8827,206.50031 598.50269,205.72149 597.07023,205.04978 C592.77288,203.03465 588.00359,201.98353 583.10057,201.70177 C576.56322,201.32609 569.78813,202.31817 563.19954,202.85365 C559.90524,203.1214 556.65757,203.27499 553.48506,203.92316 C551.8988,204.24724 550.33133,204.69497 548.75954,205.08757 C539.32878,207.44314 529.74225,207.81403 520.25809,208.59181 C510.77392,209.3696 501.3921,210.55427 491.90519,210.31602 C487.16174,210.1969 482.39202,209.72205 477.61907,209.52758 C474.4371,209.39794 471.2537,209.39291 468.11164,209.00359 C466.5406,208.80893 464.9799,208.51819 463.38405,208.32612 C460.19235,207.94197 456.86004,207.95247 453.60806,207.65686 C450.35608,207.36124 447.18442,206.7595 443.99176,206.24228 C439.20277,205.46644 434.36653,204.88075 429.52224,204.23318 C424.67795,203.58562 419.82563,202.87619 414.9108,202.84218 C409.99598,202.80816 405.01865,203.44957 400.62592,205.0829 C396.23318,206.71624 392.42503,209.34151 390.81619,213.55053 C389.74363,216.35654 389.64853,219.86644 390.76649,222.88768 C391.32546,224.3983 392.1877,225.78676 393.08436,227.1313 C395.77435,231.16492 398.77416,234.8033 402.53315,237.65012 C406.29214,240.49694 410.8103,242.55222 415.25194,244.31416 C418.21303,245.48879 421.14011,246.53305 424.1648,247.51256 C427.18949,248.49207 430.31178,249.40682 433.45397,250.10539 C438.16725,251.15325 442.92527,251.7147 447.63895,252.3601 C452.35262,253.0055 457.02194,253.73485 461.72512,254.16947 C466.42831,254.60408 471.16538,254.74398 475.84123,254.52664 C480.51708,254.30931 485.13172,253.73475 489.75028,253.43129 C494.36884,253.12783 498.99132,253.09546 503.66142,252.99451 C506.77482,252.92721 509.90938,252.82942 512.9765,252.80805 C514.51006,252.79736 516.02676,252.80577 517.55783,252.78925 C522.15106,252.73968 526.87367,252.46569 531.62976,252.25569 z" id="mode-2 position-2" class="data contour"/>
		<text font-size="14" class="shapemode label" text-anchor="middle" x="498.02124" y="454.5">Shape Mode 2</text>
		<text font-size="12" class="shapemode label" text-anchor="middle" x="498.02124" y="467"> (4.4% of total variance)</text>
	</g>
	<g id="scale bar" class="layer">
		<g id="scalebar lines">
			<line id="scalebar" class="scalebar" x1="30" x2="89.101642" y1="480" y2="480"/>
			<line id="scalebar left tic" class="scalebar tic" x1="30" x2="30" y1="478.5" y2="481.5"/>
			<line id="scalebar right tic" class="scalebar tic" x1="89.101642" x2="89.101642" y1="478.5" y2="481.5"/>
		</g>
		<text font-size="12" class="scalebar label" text-anchor="middle" x="59.550821" y="493.5">10 pixels</text>
	</g>
	<g id="legend" class="layer">
		<g id="-2 s.d. row">
			<line id="position--2" class="data legend" x1="550" x2="600" y1="19" y2="19"/>
			<text font-size="12" class="legend label" text-anchor="start" x="603" y="22">-2 s.d.</text>
		</g>
		<g id="-1 s.d. row">
			<line id="position--1" class="data legend" x1="550" x2="600" y1="34" y2="34"/>
			<text font-size="12" class="legend label" text-anchor="start" x="603" y="37">-1 s.d.</text>
		</g>
		<g id="mean row">
			<line id="position-0" class="data legend" x1="550" x2="600" y1="49" y2="49"/>
			<text font-size="12" class="legend label" text-anchor="start" x="603" y="52">mean</text>
		</g>
		<g id="1 s.d. row">
			<line id="position-1" class="data legend" x1="550" x2="600" y1="64" y2="64"/>
			<text font-size="12" class="legend label" text-anchor="start" x="603" y="67">1 s.d.</text>
		</g>
		<g id="2 s.d. row">
			<line id="position-2" class="data legend" x1="550" x2="600" y1="79" y2="79"/>
			<text font-size="12" class="legend label" text-anchor="start" x="603" y="82">2 s.d.</text>
		</g>
	</g>
	<g id="title" class="layer">
		<text font-size="14" class="plot title" text-anchor="middle" x="320" y="14">cauloModel</text>
	</g>
</svg>
