<?xml version='1.0' encoding='UTF-8'?>
<!DOCTYPE svg PUBLIC "-//W3C//DTD SVG 1.0//EN" "http://www.w3.org/TR/2001/REC-SVG-20010904/DTD/svg10.dtd ">
<svg height="480" viewBox="0 0 640 480" width="640" xmlns:xlink="http://www.w3.org/1999/xlink" xmlns="http://www.w3.org/2000/svg" >
	<defs>
		<title>kModel</title>
		<style type="text/css">
			<![CDATA[
				.data {
					fill: none;
					stroke: black;
					stroke-linecap: round;
					stroke-width: 1.5;
				}
				[id~="position--1"] {
					stroke: rgb(58,0,212);
				}
				[id~="position--2"] {
					stroke: rgb(0,0,0);
				}
				[id~="position-0"] {
					stroke: rgb(162,35,127);
				}
				[id~="position-1"] {
					stroke: rgb(255,83,0);
				}
				[id~="position-2"] {
					stroke: rgb(255,150,0);
				}
				line.axis {
					stroke: dimgrey;
					stroke-width: 0.75;
				}
				line.colorbar.tic {
					stroke: black;
					stroke-linecap: butt;
					stroke-width: 0.5;
				}
				line.scalebar {
					stroke: black;
					stroke-width: 0.75;
				}
				line.tic {
					stroke-linecap: round;
				}
				rect.colorbar {
					fill: none;
					stroke: black;
					stroke-width: 0.5;
				}
				rect.plot {
					fill: none;
					stroke: none;
				}
				text {
					font-family: Times;
				}
				text.axis {
					fill: dimgrey;
				}
				text.colorbar.label {
					fill: black;
				}
				text.label {
					font-weight: normal;
				}
				text.title {
					font-weight: bold;
				}
			]]>
		</style>
	</defs>
	<g id="Shape Mode 1" class="layer">
		<path d="M 101.19722 192.45285 C98.519084,192.3439 95.870252,192.23539 93.291728,192.60713 C92.002466,192.793 90.730781,193.09893 89.428816,193.39269 C88.12685,193.68645 86.794605,193.96803 85.479259,194.24535 C81.533221,195.0773 77.739281,195.87085 73.858083,196.38011 C69.976885,196.88938 66.008429,197.11436 62.28814,196.4112 C61.048043,196.17682 59.835521,195.83931 58.619705,195.5504 C57.403889,195.26149 56.184778,195.02119 54.997971,194.7838 C53.811163,194.54641 52.656659,194.31194 51.457673,194.19393 C50.258687,194.07592 49.01522,194.07438 47.772933,194.02442 C46.530646,193.97446 45.289538,193.87609 44.099219,193.97165 C42.9089,194.06721 41.76937,194.3567 40.664292,194.74925 C38.454136,195.53437 36.381788,196.73175 34.369604,198.23583 C33.363511,198.98787 32.37246,199.81659 31.461335,200.70665 C29.639086,202.48677 28.136545,204.51228 26.785417,206.79924 C26.109853,207.94272 25.472142,209.15157 25.023208,210.40627 C24.12534,212.91566 23.982578,215.60844 23.990314,218.30966 C23.994182,219.66027 24.035674,221.01299 24.226466,222.34264 C24.608051,225.00194 25.586835,227.56898 26.819226,229.97991 C28.051616,232.39083 29.537612,234.64565 31.391841,236.65095 C33.24607,238.65626 35.468532,240.41206 37.520308,242.2272 C38.546196,243.13478 39.529413,244.05719 40.559733,244.94627 C43.650693,247.61352 47.165584,249.98078 50.884846,251.86474 C53.364354,253.1207 55.934694,254.16187 58.524378,255.20979 C59.819219,255.73374 61.118897,256.25939 62.431669,256.71886 C65.057212,257.63782 67.735131,258.29211 70.454268,258.98941 C71.813837,259.33806 73.18371,259.69746 74.550932,260.06123 C78.652596,261.15255 82.730395,262.28319 86.917266,262.99148 C89.708514,263.46367 92.548238,263.74815 95.373867,264.07472 C96.786681,264.238 98.195972,264.41181 99.606473,264.52488 C103.83798,264.86408 108.08038,264.65665 112.28871,264.3632 C117.89983,263.97193 123.45039,263.42772 128.98382,262.61139 C131.75054,262.20322 134.51297,261.72702 137.30028,261.08432 C138.69393,260.76298 140.0938,260.4 141.48076,260.04298 C144.25468,259.32894 146.97695,258.6387 149.69627,257.94608 C151.05594,257.59978 152.41487,257.25288 153.70612,256.74364 C154.99738,256.2344 156.22097,255.56281 157.4393,254.93043 C158.65763,254.29805 159.8707,253.70487 161.00468,252.99486 C162.13865,252.28485 163.19353,251.45801 164.22253,250.56202 C166.28054,248.77005 168.23507,246.70145 170.19581,244.79117 C171.17619,243.83603 172.15811,242.92046 173.05415,241.93441 C175.74226,238.97625 177.65733,235.38371 179.0125,231.54207 C180.36767,227.70042 181.16292,223.60966 181.55591,219.75485 C181.9489,215.90003 181.93963,212.28117 180.89856,208.76364 C180.20452,206.41862 179.0519,204.11865 178.09239,202.08072 C177.13288,200.04279 176.36648,198.26691 174.85253,196.6775 C173.33857,195.08808 171.07706,193.68514 168.98972,192.85084 C167.94606,192.43369 166.94593,192.1587 165.89704,191.99839 C164.84816,191.83809 163.7505,191.79246 162.66927,191.6748 C161.58804,191.55714 160.52322,191.36745 159.49582,191.34687 C158.46841,191.32629 157.47841,191.47481 156.40854,191.65539 C155.33867,191.83598 154.18892,192.04862 153.09743,192.4242 C152.00595,192.79978 150.97271,193.3383 149.97044,193.84567 C148.96818,194.35303 147.99688,194.82923 146.97575,195.22989 C144.93349,196.03122 142.69187,196.53039 140.14869,196.78754 C138.87711,196.91612 137.53013,196.9842 136.23276,197.01426 C133.63802,197.07439 131.24168,196.98249 128.7318,196.68015 C127.47686,196.52898 126.19353,196.32521 124.91094,196.07349 C121.06315,195.31833 117.22194,194.13169 113.25976,193.45617 C109.29758,192.78065 105.21443,192.61626 101.19722,192.45285" id="mode-1 position--2" class="data contour"/>
		<path d="M 101.92191 193.38122 C99.602841,193.38384 97.391943,193.44576 95.155047,193.76642 C92.91815,194.08707 90.655256,194.66646 88.424555,195.22958 C85.078503,196.07427 81.804887,196.88236 78.488702,197.44474 C75.172518,198.00713 71.813764,198.32382 68.621165,198.04081 C66.492766,197.85214 64.438214,197.39694 62.395411,197.18872 C61.374009,197.08461 60.355544,197.04225 59.327511,197.03866 C58.299477,197.03506 57.261875,197.07023 56.226259,197.12645 C55.190642,197.18266 54.157012,197.25992 53.156807,197.45472 C52.156602,197.64952 51.189822,197.96187 50.248373,198.36115 C47.424024,199.55901 44.82764,201.53934 42.558665,203.98445 C40.28969,206.42957 38.348123,209.33947 37.293578,212.61522 C36.239033,215.89096 36.071509,219.53255 36.611785,223.01604 C37.332153,227.6607 39.310832,232.02429 42.310132,235.65536 C43.809782,237.47089 45.564587,239.10329 47.286809,240.73436 C48.14792,241.5499 49.000886,242.3651 49.886633,243.15279 C52.543873,245.51584 55.496147,247.63118 58.653362,249.36037 C60.758172,250.51316 62.954067,251.49433 65.175602,252.44516 C66.286369,252.92057 67.403546,253.3884 68.529638,253.8118 C70.781822,254.65861 73.069666,255.32771 75.39043,256.01527 C76.550812,256.35905 77.719424,256.70745 78.890726,257.03889 C82.404631,258.03322 85.942747,258.87492 89.545099,259.54911 C93.147451,260.22331 96.814041,260.73 100.47904,260.93913 C104.14404,261.14827 107.80745,261.05985 111.44601,260.85089 C116.29742,260.57227 121.10465,260.07936 125.85292,259.20082 C129.41412,258.54192 132.94216,257.66609 136.44711,256.70411 C139.95206,255.74212 143.43392,254.69398 146.67074,253.26526 C148.82862,252.31278 150.87758,251.19116 152.78087,249.85177 C153.73251,249.18208 154.64773,248.45795 155.52741,247.68068 C157.28675,246.12615 158.90391,244.35908 160.52695,242.65935 C161.33847,241.80948 162.15146,240.97645 162.89252,240.09687 C164.37463,238.33772 165.569,236.39236 166.56231,234.30332 C167.05896,233.2588 167.50535,232.17836 167.89352,231.07552 C169.05801,227.76702 169.69847,224.25694 169.99997,220.90304 C170.30146,217.54914 170.26398,214.35141 169.44713,211.27426 C168.90256,209.22283 168.0116,207.22499 167.16779,205.40571 C166.32398,203.58644 165.52732,201.94572 164.24728,200.49462 C163.60725,199.76906 162.84638,199.09092 162.03802,198.48133 C161.22965,197.87175 160.37379,197.33074 159.51127,196.94057 C158.64875,196.55041 157.77958,196.31109 156.90751,196.09386 C155.16335,195.65941 153.40759,195.31329 151.64601,195.19962 C150.76523,195.14279 149.88299,195.14406 148.98251,195.23723 C147.18156,195.42356 145.30763,195.97746 143.54873,196.55021 C142.66928,196.83658 141.81859,197.12767 140.92948,197.35444 C139.15127,197.80798 137.21941,198.00424 135.10271,198.04324 C134.04436,198.06273 132.93981,198.04292 131.85463,197.98673 C128.5991,197.81815 125.51798,197.32223 122.28274,196.57268 C119.0475,195.82314 115.65814,194.81997 112.27518,194.19949 C110.01988,193.78583 107.76742,193.54226 105.43449,193.44304 C104.26803,193.39343 103.08145,193.37991 101.92191,193.38122 z" id="mode-1 position--1" class="data contour"/>
		<path d="M 102.69556 194.28701 C98.849779,194.44201 95.07193,195.19721 91.374717,196.20979 C88.601808,196.96923 85.874257,197.87345 83.124382,198.52389 C80.374508,199.17433 77.602311,199.571 74.955203,199.64526 C73.190464,199.69477 71.48132,199.60099 69.7735,199.65579 C68.91959,199.6832 68.066011,199.74775 67.215386,199.8455 C64.663512,200.13875 62.138228,200.73083 59.825351,201.96235 C57.512473,203.19386 55.412003,205.0648 53.607538,207.2713 C51.803072,209.4778 50.294612,212.01985 49.480895,214.8297 C48.667177,217.63956 48.548204,220.71721 48.94867,223.6875 C49.482626,227.64788 50.940031,231.41738 53.206784,234.66878 C54.340161,236.29448 55.675876,237.79065 57.068881,239.23565 C57.765384,239.95814 58.47621,240.66784 59.210989,241.35571 C61.415327,243.4193 63.835249,245.28636 66.430778,246.86212 C69.026307,248.43789 71.797443,249.72235 74.619889,250.88583 C80.264779,253.21281 86.114906,255.05588 92.163898,256.17982 C98.21289,257.30377 104.46075,257.7086 110.60699,257.37922 C117.7776,256.99494 124.8099,255.61134 131.44088,253.35709 C137.12458,251.42487 142.51343,248.85301 146.82839,244.83284 C148.26671,243.49278 149.58571,241.9918 150.86423,240.50981 C151.50349,239.76881 152.13264,239.03257 152.71651,238.2649 C154.46812,235.9619 155.81231,233.37612 156.76089,230.61085 C157.70948,227.84557 158.26247,224.9008 158.46755,222.04697 C158.67262,219.19313 158.5298,216.43023 157.9654,213.78917 C157.21287,210.26774 155.71088,206.96289 153.60512,204.31438 C152.55225,202.99013 151.34843,201.82996 150.02999,201.05492 C149.37078,200.66741 148.68291,200.37617 147.98712,200.11801 C145.89976,199.34353 143.74115,198.86666 141.57457,198.87064 C139.40798,198.87461 137.23342,199.35943 134.89081,199.48714 C132.5482,199.61485 130.03754,199.38545 127.47326,198.94211 C124.90898,198.49877 122.29107,197.84149 119.60742,197.08439 C116.92377,196.32729 114.17439,195.47037 111.33842,194.93123 C108.50245,194.3921 105.5799,194.17075 102.69556,194.28701 z" id="mode-1 position-0" class="data contour"/>
		<path d="M 103.44423 195.21585 C101.89349,195.36152 100.34419,195.69733 98.820271,196.04708 C97.296351,196.39682 95.797816,196.76049 94.320869,197.22208 C92.105448,197.91446 89.9386,198.82714 87.7634,199.57384 C85.5882,200.32054 83.404649,200.90125 81.280312,201.26236 C80.5722,201.38273 79.870667,201.47871 79.19454,201.6218 C78.518413,201.7649 77.867692,201.95512 77.179703,202.13081 C76.491714,202.30649 75.766458,202.46765 75.082833,202.67065 C73.715582,203.07665 72.51486,203.65004 71.266964,204.36626 C70.643015,204.72437 70.007274,205.11819 69.39908,205.55713 C67.5745,206.87393 65.99785,208.59676 64.663348,210.55294 C63.328847,212.50913 62.236494,214.69866 61.662128,217.04711 C61.087763,219.39557 61.031384,221.90295 61.291753,224.35815 C61.638911,227.63175 62.549175,230.8126 64.101942,233.67975 C65.266518,235.83011 66.792502,237.80403 68.518172,239.57804 C71.969513,243.12606 76.2196,245.87448 80.701248,248.052 C85.182897,250.22951 89.896106,251.8361 94.784555,252.79935 C99.673005,253.7626 104.73669,254.0825 109.75942,253.83703 C113.10791,253.67338 116.43819,253.25845 119.58696,252.38818 C121.16134,251.95305 122.69035,251.40408 124.19162,250.84338 C124.94225,250.56304 125.68595,250.27975 126.41743,249.97058 C130.80631,248.11554 134.75531,245.32845 138.10063,241.9462 C139.77329,240.25508 141.29504,238.41516 142.5656,236.44407 C143.83616,234.47298 144.85553,232.37071 145.62595,230.13894 C146.13956,228.65108 146.54252,227.10567 146.72371,225.54466 C146.81431,224.76415 146.84946,223.97975 146.8747,223.19643 C146.95041,220.84646 146.9369,218.50626 146.56648,216.29909 C146.31953,214.82764 145.91396,213.41532 145.29686,212.04339 C144.67977,210.67146 143.85115,209.33991 143.05958,208.15157 C142.6638,207.55739 142.27727,206.99902 141.85972,206.4737 C141.44217,205.94837 140.99358,205.4561 140.50448,205.09039 C140.01537,204.72467 139.48573,204.48551 138.97672,204.22298 C137.95869,203.69792 137.02315,203.07939 135.9276,202.75687 C135.37982,202.59561 134.79204,202.50835 134.21067,202.46605 C133.6293,202.42376 133.05435,202.42642 132.47656,202.35054 C131.89876,202.27465 131.31813,202.12022 130.71525,201.98553 C130.11236,201.85084 129.48721,201.73589 128.85594,201.60108 C126.96214,201.19662 125.01322,200.61329 123.04248,199.90417 C121.07174,199.19505 119.07917,198.36014 116.97328,197.59115 C112.7615,196.05317 108.09643,194.77884 103.44423,195.21585" id="mode-1 position-1" class="data contour"/>
		<path d="M 104.19445 196.14338 C103.0235,196.37976 101.85145,196.86994 100.67187,197.20165 C99.492293,197.53335 98.305191,197.70657 97.238841,198.17966 C96.705667,198.41621 96.202681,198.72772 95.668208,199.00582 C95.133736,199.28392 94.567778,199.5286 94.019389,199.78456 C93.471,200.04053 92.94018,200.30778 92.402514,200.59915 C91.864847,200.89052 91.320334,201.20601 90.776118,201.45979 C90.231903,201.71356 89.687986,201.90562 89.177824,202.14005 C88.667661,202.37447 88.191252,202.65126 87.658879,202.89637 C87.126505,203.14148 86.538167,203.35491 86.031741,203.6371 C85.525315,203.91928 85.100801,204.27023 84.581734,204.58593 C84.062668,204.90163 83.449048,205.18208 82.938253,205.48863 C82.427458,205.79518 82.019487,206.12783 81.608233,206.53411 C81.196978,206.94039 80.78244,207.4203 80.322603,207.84658 C79.862766,208.27287 79.357631,208.64551 78.93201,209.10841 C78.50639,209.5713 78.160284,210.12443 77.781647,210.63923 C77.40301,211.15404 76.991843,211.63051 76.639924,212.15873 C76.288006,212.68695 75.995337,213.26693 75.710968,213.84476 C75.142231,215.00043 74.606695,216.14754 74.283406,217.37833 C74.121762,217.99372 74.013179,218.63003 73.903757,219.26729 C73.684912,220.54182 73.462708,221.82013 73.487905,223.09678 C73.500504,223.73511 73.574953,224.37301 73.642218,225.01618 C73.776749,226.30251 73.882549,227.60987 74.07929,228.90221 C74.276032,230.19455 74.563717,231.47189 74.978315,232.70367 C75.392914,233.93545 75.934427,235.12168 76.654164,236.22436 C77.014032,236.7757 77.418457,237.30615 77.845223,237.79984 C78.698754,238.78724 79.64165,239.62762 80.561956,240.52645 C81.022109,240.97586 81.476614,241.43988 81.960722,241.8689 C83.413048,243.15596 85.131807,244.12799 86.821572,245.12599 C88.511337,246.12398 90.17211,247.14794 91.927529,247.86172 C93.682949,248.57549 95.533015,248.97908 97.405605,249.3634 C99.278195,249.74773 101.17331,250.11279 103.09526,250.25031 C105.01721,250.38782 106.966,250.29778 108.91372,250.26219 C110.21219,250.23846 111.51019,250.23893 112.77815,250.02663 C114.04611,249.81433 115.28404,249.38926 116.45526,248.92649 C117.62648,248.46371 118.731,247.96324 119.81493,247.45791 C120.3569,247.20525 120.89372,246.95137 121.4108,246.64893 C122.96203,245.74158 124.33555,244.39708 125.63555,243.14301 C126.06889,242.72499 126.49405,242.31701 126.90044,241.85825 C127.30683,241.3995 127.69443,240.88996 128.13117,240.42243 C128.5679,239.9549 129.05376,239.52937 129.47101,239.08815 C130.30553,238.20572 130.86564,237.26054 131.49002,236.22387 C131.80221,235.70554 132.13047,235.16433 132.42161,234.61952 C133.29505,232.98509 133.8345,231.31825 134.47731,229.67208 C134.69158,229.12335 134.91734,228.57692 135.05136,227.98564 C135.18539,227.39435 135.22769,226.75821 135.25855,226.14278 C135.28941,225.52736 135.30884,224.93265 135.31521,224.32823 C135.33434,222.51497 135.23604,220.61434 135.10774,218.8123 C135.02221,217.61094 134.92334,216.45339 134.38034,215.35568 C134.10884,214.80683 133.72631,214.27293 133.38652,213.69138 C133.04672,213.10984 132.74967,212.48064 132.48852,211.93717 C132.22737,211.39371 132.00213,210.93599 131.77112,210.47266 C131.5401,210.00933 131.30332,209.54039 131.00135,209.18009 C130.69939,208.81979 130.33224,208.56814 130.00447,208.27942 C129.34894,207.70197 128.85091,206.97622 128.07457,206.53932 C127.68639,206.32087 127.22864,206.17464 126.8075,206.07028 C126.38636,205.96593 126.00184,205.90345 125.60327,205.6698 C125.2047,205.43616 124.79208,205.03134 124.3136,204.68334 C123.83512,204.33534 123.29077,204.04417 122.78227,203.73895 C121.25676,202.82331 120.0538,201.78131 118.63645,200.85045 C118.164,200.54016 117.66773,200.24223 117.20745,199.91906 C116.74717,199.59589 116.32288,199.24749 115.85339,198.93542 C115.38389,198.62336 114.86917,198.34762 114.34506,198.09444 C112.77271,197.33491 111.11573,196.77836 109.41027,196.39184 C107.70481,196.00531 105.95087,195.78881 104.19445,196.14338 z" id="mode-1 position-2" class="data contour"/>
		<text font-size="14" class="shapemode label" text-anchor="middle" x="102.89992" y="454.5">Shape Mode 1</text>
		<text font-size="12" class="shapemode label" text-anchor="middle" x="102.89992" y="467"> (70.9% of total variance)</text>
	</g>
	<g id="Shape Mode 2" class="layer">
		<path d="M 266.25527 187.55154 C265.32923,187.49217 264.42093,187.40996 263.49269,187.45651 C262.56445,187.50306 261.61628,187.67838 260.63695,187.8216 C259.65761,187.96482 258.64711,188.07596 257.66797,188.17739 C256.68884,188.27882 255.74107,188.37055 254.78617,188.50655 C252.87636,188.77855 250.93802,189.22762 249.01178,189.40015 C248.04867,189.48642 247.08858,189.50356 246.12799,189.62724 C244.20681,189.87459 242.28363,190.54809 240.48796,190.71419 C239.59013,190.79723 238.72418,190.75343 237.85378,190.75659 C236.98339,190.75976 236.10855,190.80989 235.32328,190.91935 C234.53801,191.02882 233.8423,191.19761 233.05147,191.43179 C232.26064,191.66598 231.37469,191.96555 230.56813,192.35462 C229.76158,192.7437 229.03442,193.22228 228.34348,193.67272 C227.65254,194.12316 226.9978,194.54546 226.2668,195.11877 C225.53579,195.69208 224.72851,196.41641 224.04498,197.16587 C223.36145,197.91533 222.80167,198.68993 222.22992,199.56067 C221.65817,200.43141 221.07445,201.39829 220.50672,202.25765 C219.93899,203.117 219.38725,203.86884 218.93319,204.71745 C218.02508,206.41468 217.50772,208.49899 216.82063,210.50338 C216.47709,211.50558 216.09112,212.48779 215.83393,213.49064 C215.31957,215.49634 215.32037,217.58458 215.26196,219.69443 C215.23276,220.74936 215.18875,221.80968 215.20551,222.86717 C215.22226,223.92466 215.29978,224.97931 215.45701,226.04493 C215.61423,227.11054 215.85117,228.18713 216.07009,229.24662 C216.50792,231.36559 216.87367,233.41615 217.66988,235.40393 C218.46609,237.39171 219.69277,239.31672 220.76583,241.27643 C221.30235,242.25628 221.80047,243.2448 222.33664,244.22692 C223.40898,246.19116 224.6335,248.12977 226.05821,249.87186 C226.77057,250.74291 227.53298,251.56484 228.33434,252.34612 C230.73842,254.68996 233.49308,256.66803 236.29476,258.55498 C239.09644,260.44192 241.94513,262.23775 244.95764,263.66824 C247.97015,265.09873 251.14648,266.16387 254.38765,266.9436 C257.62881,267.72334 260.93483,268.21766 264.2679,268.41691 C267.60097,268.61615 270.96109,268.52031 274.27917,268.13526 C276.49123,267.87856 278.68459,267.49331 280.87718,267.16185 C283.06977,266.83038 285.26158,266.5527 287.3036,266.09327 C289.34562,265.63384 291.23784,264.99267 293.17806,263.9317 C294.14816,263.40121 295.13027,262.76577 296.09205,262.16311 C297.05383,261.56045 297.99528,260.99056 298.88165,260.34751 C299.76803,259.70445 300.59934,258.98823 301.4351,258.36361 C302.27087,257.739 303.11109,257.206 303.82323,256.46001 C304.53537,255.71402 305.11942,254.75504 305.70706,253.79361 C306.2947,252.83218 306.88592,251.8683 307.40889,250.91452 C307.93185,249.96073 308.38656,249.01705 308.82215,248.03368 C310.12892,245.08358 311.26365,241.77634 312.51645,239.09337 C312.93405,238.19905 313.36476,237.37409 313.54035,236.41407 C313.71594,235.45405 313.6364,234.35897 313.70157,233.30775 C313.76674,232.25653 313.97661,231.24918 314.14291,230.21945 C314.64181,227.13026 314.74851,223.83969 314.40742,220.9498 C314.29372,219.9865 314.13026,219.06772 314.0451,218.17121 C313.95994,217.2747 313.95307,216.40046 313.86223,215.53577 C313.7714,214.67108 313.59661,213.81593 313.57797,212.89948 C313.55933,211.98303 313.69684,211.00528 313.73402,210.06813 C313.7712,209.13098 313.70805,208.23444 313.63437,207.3362 C313.5607,206.43796 313.47651,205.53801 313.30053,204.59367 C313.12455,203.64934 312.85678,202.66063 312.56103,201.79527 C312.26529,200.9299 311.94156,200.18787 311.54738,199.42327 C311.15321,198.65867 310.68859,197.87148 310.22286,197.29973 C309.75713,196.72797 309.2903,196.37165 308.81502,195.95812 C307.86445,195.13107 306.88008,194.07523 305.67226,193.49535 C305.06835,193.20542 304.40858,193.03447 303.68693,192.94887 C302.96529,192.86327 302.18177,192.86301 301.47876,192.72666 C300.77575,192.59031 300.15326,192.31786 299.49205,192.17794 C298.83085,192.03801 298.13094,192.0306 297.3834,192.00062 C295.88832,191.94067 294.20274,191.79046 292.45847,191.766 C291.58634,191.75377 290.69953,191.77299 289.88055,191.71652 C287.42361,191.54712 285.57716,190.6966 282.99931,190.18272 C282.14002,190.01143 281.19947,189.87754 280.2838,189.6754 C279.36813,189.47326 278.47734,189.20286 277.56833,188.94372 C276.65932,188.68458 275.73208,188.4367 274.79184,188.25307 C271.97112,187.70219 269.03338,187.72966 266.25527,187.55154 z" id="mode-2 position--2" class="data contour"/>
		<path d="M 265.70033 190.87948 C263.80097,190.90931 261.94191,191.03298 260.03928,191.28994 C258.13665,191.5469 256.19045,191.93715 254.29593,192.34995 C252.40141,192.76274 250.55857,193.19807 248.67851,193.53318 C247.73848,193.70074 246.78914,193.84324 245.84837,194.02268 C243.96681,194.38156 242.11949,194.8882 240.29619,195.05835 C239.38455,195.14342 238.47891,195.14437 237.61102,195.15251 C235.87524,195.1688 234.29045,195.21387 232.62344,195.49978 C231.78994,195.64273 230.93588,195.84589 230.11818,196.08048 C228.4828,196.54967 226.99288,197.14459 225.45485,197.99609 C224.68583,198.42183 223.90479,198.91173 223.17525,199.49278 C221.71617,200.65488 220.46309,202.18162 219.24599,203.67519 C218.63744,204.42197 218.03788,205.16047 217.50256,205.95588 C216.43191,207.54672 215.6182,209.36524 214.89349,211.24771 C214.53113,212.18895 214.19102,213.14617 213.92653,214.12245 C213.13306,217.05131 213.02015,220.15175 213.32488,223.22744 C213.52804,225.2779 213.91681,227.31736 214.45882,229.29656 C215.00082,231.27577 215.69606,233.19472 216.67505,234.99928 C217.65403,236.80383 218.91677,238.49399 220.14261,240.20486 C220.75553,241.06029 221.35922,241.9209 221.99611,242.75894 C223.90676,245.27305 226.11613,247.58404 228.60852,249.55542 C231.10091,251.52679 233.8763,253.15855 236.69019,254.6822 C239.50407,256.20584 242.35644,257.62136 245.3235,258.77808 C248.29055,259.93479 251.3723,260.83271 254.50662,261.51052 C257.64094,262.18834 260.82783,262.64606 264.03657,262.84371 C267.24532,263.04137 270.47591,262.97896 273.67039,262.69753 C275.80005,262.50991 277.91366,262.22495 280.02346,261.93565 C282.13326,261.64636 284.23925,261.35274 286.24442,260.90402 C288.24959,260.4553 290.15396,259.85147 292.09418,259.04768 C293.06429,258.64578 294.04336,258.19389 294.99891,257.72308 C296.91001,256.78144 298.72701,255.76409 300.45517,254.74787 C301.31926,254.23975 302.16113,253.73193 302.95389,253.12822 C304.53941,251.92082 305.92849,250.32994 307.20744,248.75791 C307.84691,247.97189 308.45886,247.19059 309.04481,246.37155 C310.80266,243.91445 312.32658,241.11779 313.83575,238.62458 C314.33881,237.79351 314.84023,236.99615 315.17274,236.10658 C315.50525,235.21701 315.66884,234.23522 315.90429,233.26662 C316.13973,232.29803 316.44703,231.34263 316.69647,230.36698 C317.44478,227.44002 317.67235,224.33074 317.65209,221.45849 C317.63184,218.58623 317.36377,215.951 317.04575,213.28594 C316.83374,211.50924 316.59952,209.71928 316.17824,207.982 C315.75696,206.24473 315.14862,204.56014 314.33835,203.0457 C313.93321,202.28847 313.47759,201.57379 312.97286,200.89698 C312.46812,200.22018 311.91427,199.58126 311.34518,199.11242 C310.77608,198.64358 310.19175,198.34481 309.60791,198.0165 C308.44022,197.35988 307.27449,196.58508 305.95778,196.19363 C305.29942,195.99791 304.60332,195.89802 303.87179,195.86293 C303.14027,195.82783 302.37331,195.85754 301.64888,195.8301 C300.92446,195.80267 300.24256,195.7181 299.54086,195.68974 C298.83916,195.66137 298.11766,195.68921 297.36334,195.69263 C295.85469,195.69946 294.21471,195.60861 292.48964,195.49634 C291.6271,195.44021 290.74328,195.37872 289.89616,195.27505 C287.35481,194.96404 285.14374,194.2734 282.54751,193.59228 C280.81669,193.1382 278.91468,192.68836 277.05963,192.22579 C276.13211,191.9945 275.21632,191.76004 274.2845,191.57032 C271.48905,191.00116 268.54936,190.83475 265.70033,190.87948 z" id="mode-2 position--1" class="data contour"/>
		<path d="M 265.15258 194.19892 C261.3068,194.35393 257.52895,195.10912 253.83173,196.12171 C251.05882,196.88114 248.33127,197.78536 245.5814,198.43581 C242.83152,199.08625 240.05933,199.48291 237.41222,199.55718 C235.64748,199.60669 233.93834,199.51291 232.23052,199.56771 C231.37661,199.59511 230.52303,199.65966 229.6724,199.75742 C227.12053,200.05067 224.59524,200.64275 222.28237,201.87426 C219.96949,203.10578 217.86902,204.97672 216.06455,207.18322 C214.26009,209.38972 212.75163,211.93177 211.93791,214.74162 C211.12419,217.55148 211.00522,220.62913 211.40569,223.59941 C211.93964,227.5598 213.39705,231.3293 215.6638,234.5807 C216.79718,236.2064 218.13289,237.70257 219.5259,239.14756 C220.2224,239.87006 220.93323,240.57976 221.66801,241.26763 C223.87234,243.33122 226.29226,245.19828 228.88779,246.77404 C231.48332,248.3498 234.25446,249.63427 237.0769,250.79775 C242.7218,253.12473 248.57192,254.96779 254.62091,256.09174 C260.66991,257.21569 266.91776,257.62052 273.064,257.29114 C280.23462,256.90686 287.26692,255.52325 293.8979,253.26901 C299.5816,251.33679 304.97044,248.76493 309.2854,244.74476 C310.72373,243.4047 312.04273,241.90372 313.32125,240.42173 C313.96051,239.68073 314.58965,238.94449 315.17352,238.17682 C316.92514,235.87382 318.26932,233.28804 319.21791,230.52276 C320.16649,227.75749 320.71948,224.81272 320.92456,221.95888 C321.12964,219.10505 320.98681,216.34215 320.42241,213.70108 C319.66988,210.17966 318.16789,206.87481 316.06214,204.2263 C315.00926,202.90205 313.80544,201.74187 312.48701,200.96684 C311.82779,200.57932 311.13992,200.28809 310.44413,200.02993 C308.35677,199.25544 306.19817,198.77858 304.03158,198.78256 C301.865,198.78653 299.69044,199.27135 297.34783,199.39906 C295.00522,199.52677 292.49456,199.29737 289.93028,198.85403 C287.36599,198.41069 284.74808,197.75341 282.06444,196.99631 C279.38079,196.23921 276.6314,195.38229 273.79544,194.84315 C270.95947,194.30402 268.03692,194.08267 265.15258,194.19892" id="mode-2 position-0" class="data contour"/>
		<path d="M 264.59603 197.55677 C262.65143,197.67263 260.72002,197.9377 258.84559,198.34259 C256.97116,198.74747 255.15371,199.29215 253.35388,199.92086 C250.65415,200.86393 247.99407,201.99604 245.30487,202.76231 C242.61567,203.52859 239.89735,203.92903 237.20079,203.9261 C236.30194,203.92513 235.40551,203.87933 234.51441,203.82803 C233.62331,203.77672 232.73755,203.71992 231.85293,203.65516 C230.96831,203.5904 230.08484,203.5177 229.19685,203.47355 C226.53285,203.3411 223.8281,203.46562 221.35849,204.21574 C219.71208,204.71581 218.17017,205.49393 216.71055,206.58454 C215.98074,207.12985 215.2715,207.75328 214.59267,208.40566 C213.23501,209.71041 211.99898,211.13095 211.08499,212.77191 C210.628,213.59239 210.25152,214.46798 209.95844,215.37589 C209.07917,218.0996 208.95045,221.11413 209.47705,223.96437 C210.17919,227.76468 212.04634,231.27288 214.61748,234.16921 C216.54584,236.34145 218.87019,238.16951 221.34809,239.78177 C223.82598,241.39402 226.45742,242.79048 229.16216,243.97587 C231.86689,245.16127 234.64493,246.13561 237.47306,246.9426 C240.30119,247.7496 243.17943,248.38926 246.05998,248.99419 C248.94054,249.59911 251.82341,250.16929 254.74189,250.64588 C257.66037,251.12248 260.61446,251.50548 263.57549,251.69716 C266.53652,251.88884 269.50449,251.8892 272.45189,251.8223 C274.41681,251.7777 276.37259,251.70321 278.31646,251.48871 C280.26033,251.27422 282.19228,250.91972 284.12586,250.51258 C286.05944,250.10545 287.99464,249.64568 289.92358,249.28814 C290.88805,249.10938 291.85096,248.95617 292.80521,248.77865 C295.66794,248.24608 298.45272,247.49472 301.2713,246.56947 C304.08989,245.64422 306.94228,244.54508 309.517,243.07584 C312.09172,241.6066 314.38878,239.76725 316.48505,237.67717 C318.58132,235.58708 320.47681,233.24627 321.75313,230.67159 C323.02946,228.0969 323.68663,225.28835 324.13187,222.45433 C324.4287,220.56499 324.63133,218.66432 324.44109,216.8185 C324.34597,215.89559 324.15263,214.9864 323.85504,214.11094 C323.25986,212.36001 322.24768,210.74404 321.21631,209.29166 C320.18493,207.83927 319.13436,206.55046 317.87516,205.42305 C317.24557,204.85935 316.56381,204.336 315.84341,203.87765 C315.12301,203.4193 314.36398,203.02595 313.57915,202.74406 C312.79432,202.46218 311.9837,202.29175 311.18779,202.13938 C308.80003,201.68227 306.54456,201.3877 304.2551,201.67264 C301.96564,201.95758 299.64218,202.82203 297.33185,203.08932 C295.79163,203.26751 294.25724,203.1803 292.55046,202.92933 C291.69707,202.80385 290.80058,202.63743 289.89653,202.45378 C287.18438,201.90285 284.40416,201.1969 281.6444,200.37991 C278.88464,199.56292 276.14534,198.63489 273.30241,198.0899 C270.45948,197.54491 267.51292,197.38298 264.59603,197.55677 z" id="mode-2 position-1" class="data contour"/>
		<path d="M 264.03991 200.89169 C263.03601,201.03411 262.02298,201.26749 261.05188,201.39342 C260.08078,201.51936 259.15162,201.53785 258.25241,201.74612 C257.3532,201.95439 256.48396,202.35243 255.58476,202.715 C254.68557,203.07756 253.75643,203.40464 252.85929,203.75212 C251.06501,204.44708 249.39874,205.22367 247.65092,206.03203 C246.77701,206.43621 245.88271,206.84833 245.01425,207.16752 C244.1458,207.48672 243.30319,207.713 242.42101,207.83884 C241.53882,207.96468 240.61706,207.99007 239.69973,208.09351 C238.7824,208.19695 237.8695,208.37843 236.9697,208.37788 C236.0699,208.37733 235.1832,208.19474 234.25631,208.07605 C233.32942,207.95735 232.36234,207.90254 231.44355,207.75949 C230.52476,207.61644 229.65425,207.38515 228.74538,207.1857 C226.01877,206.58735 222.94691,206.27552 220.42317,206.59142 C219.58192,206.69672 218.80158,206.87177 217.95622,207.07987 C217.11086,207.28798 216.20048,207.52914 215.38991,207.97068 C214.57933,208.41223 213.86855,209.05416 213.14417,209.66449 C211.6954,210.88515 210.19222,211.97941 209.16805,213.49686 C208.65597,214.25559 208.26364,215.12011 207.9605,216.0095 C207.05108,218.67766 206.94432,221.56964 207.56632,224.31236 C207.98098,226.14084 208.71954,227.90298 209.76793,229.47999 C210.81632,231.05701 212.17455,232.4489 213.59941,233.75357 C214.31184,234.4059 215.04092,235.03643 215.83946,235.55858 C216.63799,236.08072 217.50598,236.49447 218.36474,236.95432 C219.2235,237.41417 220.07304,237.92011 220.97635,238.34169 C222.78296,239.18485 224.80461,239.69053 226.66919,240.30203 C227.60148,240.60779 228.4945,240.93999 229.41346,241.21685 C231.25136,241.77056 233.193,242.10285 235.0675,242.51945 C236.00475,242.72776 236.92521,242.95713 237.86136,243.12311 C239.73366,243.45505 241.66871,243.53336 243.58018,243.73777 C244.53592,243.83997 245.48576,243.97369 246.43021,244.10316 C249.26355,244.49155 252.04832,244.84157 254.85941,245.2028 C257.6705,245.56402 260.50792,245.93644 263.34496,246.1312 C266.18199,246.32596 269.01865,246.34305 271.84259,246.37935 C273.72522,246.40356 275.60219,246.43631 277.46308,246.26503 C279.32398,246.09376 281.16881,245.71847 283.06663,245.32435 C284.96445,244.93023 286.91526,244.51727 288.83822,244.39308 C289.79971,244.33098 290.75423,244.34107 291.70712,244.31911 C293.61291,244.27518 295.51217,244.10302 297.46412,243.77094 C298.44009,243.6049 299.42923,243.39889 300.44287,243.24142 C302.47016,242.92647 304.59548,242.8057 306.66716,242.32497 C307.703,242.08461 308.72543,241.75425 309.73038,241.40607 C311.74027,240.70969 313.68022,239.94199 315.35749,238.91857 C316.19613,238.40687 316.9691,237.83123 317.76522,237.21166 C319.35747,235.97252 321.04235,234.55763 322.44475,233.0902 C323.14596,232.35649 323.77654,231.60964 324.30775,230.8227 C325.90136,228.46186 326.60053,225.74014 327.3566,222.94669 C327.60863,222.01554 327.86698,221.07642 327.97029,220.12075 C328.07361,219.16509 328.02189,218.19288 327.9353,217.24118 C327.84872,216.28947 327.72728,215.35826 327.32966,214.50331 C326.93204,213.64836 326.25826,212.86968 325.63747,212.11006 C325.01669,211.35044 324.44892,210.6099 323.78587,209.93842 C323.12282,209.26694 322.3645,208.66454 321.69204,208.11375 C321.01958,207.56297 320.43299,207.06381 319.69827,206.62016 C318.96355,206.17651 318.08071,205.78838 317.23684,205.41832 C316.39296,205.04827 315.58805,204.69629 314.7154,204.49293 C313.84275,204.28957 312.90237,204.23482 311.98895,204.19916 C309.24871,204.0922 306.75115,204.15708 304.44072,204.57881 C303.67057,204.71939 302.92122,204.89962 302.1357,205.19024 C301.35019,205.48086 300.52852,205.88186 299.70829,206.17934 C298.88807,206.47683 298.06929,206.67079 297.28661,206.79389 C295.72126,207.0401 294.30031,207.0029 292.60577,206.65474 C291.75851,206.48066 290.84284,206.22885 289.90055,205.99868 C287.07366,205.30816 284.0071,204.81245 281.20754,203.79828 C280.27435,203.46023 279.37083,203.06456 278.43828,202.75817 C277.50572,202.45178 276.54413,202.23465 275.60084,202.02295 C274.65754,201.81126 273.73254,201.60499 272.79467,201.41767 C269.98105,200.85573 267.05159,200.46441 264.03991,200.89169 z" id="mode-2 position-2" class="data contour"/>
		<text font-size="14" class="shapemode label" text-anchor="middle" x="267.55754" y="454.5">Shape Mode 2</text>
		<text font-size="12" class="shapemode label" text-anchor="middle" x="267.55754" y="467"> (13.1% of total variance)</text>
	</g>
	<g id="Shape Mode 3" class="layer">
		<path d="M 407.78036 194.90937 C405.84554,195.11528 403.98318,195.6038 402.0827,196.12508 C400.18221,196.64636 398.24361,197.20041 396.33939,198.05279 C394.43517,198.90516 392.56534,200.05586 390.5841,201.01726 C389.59348,201.49797 388.57501,201.93135 387.61199,202.15463 C386.64896,202.37791 385.74137,202.3911 384.71899,202.44136 C383.6966,202.49161 382.55941,202.57894 381.49451,202.58451 C380.42961,202.59009 379.437,202.5139 378.34877,202.33852 C377.26054,202.16314 376.07669,201.88856 374.94971,201.69835 C373.82274,201.50814 372.75264,201.40229 371.66971,201.24664 C370.58678,201.09099 369.49102,200.88553 368.49154,200.91381 C366.49259,200.97037 364.87879,201.96188 363.2937,202.72483 C362.50116,203.10631 361.71579,203.43065 360.97787,203.88684 C359.50203,204.79921 358.21597,206.23897 357.14562,208.23352 C356.61045,209.2308 356.1292,210.36677 355.74119,211.47071 C355.35318,212.57466 355.0584,213.64658 354.70835,214.59975 C354.35829,215.55292 353.95295,216.38735 353.80305,217.40469 C353.65315,218.42204 353.75869,219.62231 353.86801,220.77329 C354.19595,224.22622 354.55783,227.23551 356.1164,229.99472 C356.63593,230.91446 357.28842,231.80641 357.89277,232.67157 C358.49712,233.53673 359.05334,234.37511 359.69232,235.17298 C360.97029,236.76873 362.57933,238.2025 364.09845,239.4193 C365.61756,240.6361 367.04674,241.63593 368.55476,242.78113 C369.30877,243.35372 370.08248,243.96266 370.88796,244.49649 C372.4989,245.56414 374.23685,246.33137 375.73479,247.29059 C376.48376,247.77019 377.17273,248.2978 377.89405,248.79521 C380.05801,250.28742 382.51311,251.50781 384.87336,252.64506 C386.44686,253.40323 387.97819,254.12445 389.58413,254.96229 C390.3871,255.38121 391.20873,255.82928 392.03601,256.1962 C393.69058,256.93004 395.36778,257.33925 397.08495,257.7889 C397.94354,258.01372 398.81212,258.24865 399.68736,258.45098 C401.43785,258.85564 403.215,259.12988 405.00048,259.19843 C405.89322,259.23271 406.78805,259.21556 407.681,259.22729 C410.35986,259.2625 413.02187,259.55767 415.63914,259.35269 C417.38398,259.21603 419.10894,258.8571 420.82939,258.62383 C422.54985,258.39056 424.26579,258.28297 425.92437,257.92148 C428.41223,257.37925 430.77102,256.26574 433.29275,255.47502 C435.81447,254.68429 438.49914,254.21633 440.88302,253.22169 C443.26691,252.22705 445.35003,250.70573 447.44364,248.94523 C449.53726,247.18473 451.64139,245.18505 453.75726,243.56845 C454.46255,243.02958 455.16914,242.53328 455.78551,241.88316 C456.40187,241.23305 456.928,240.42912 457.53674,239.67201 C458.14549,238.91491 458.83685,238.20462 459.4662,237.43792 C460.7249,235.90453 461.73556,234.14551 462.62408,232.50776 C463.06833,231.68889 463.48206,230.90034 463.9145,229.94545 C464.77939,228.03568 465.71917,225.46057 466.36891,223.09901 C466.69378,221.91824 466.94615,220.79085 467.15092,219.64534 C467.35569,218.49982 467.51287,217.33619 467.65596,216.22616 C467.79905,215.11613 467.92805,214.0597 467.90858,212.99468 C467.86963,210.86463 467.23677,208.70019 466.48933,206.66102 C465.74188,204.62185 464.87983,202.70794 463.34093,201.34139 C462.57149,200.65812 461.63282,200.11168 460.70215,199.66201 C458.84081,198.76265 457.01141,198.25034 454.86711,198.37215 C453.79495,198.43305 452.64407,198.65248 451.60639,198.80965 C449.53104,199.12399 447.9085,199.18927 445.8955,199.12014 C444.88899,199.08557 443.78488,199.01741 442.73225,198.94058 C439.57438,198.71009 436.87994,198.40166 434.12981,198.19897 C432.29639,198.06384 430.43823,197.97571 428.4404,197.84954 C427.44149,197.78645 426.40766,197.71385 425.3986,197.57741 C423.38048,197.30453 421.46144,196.7763 419.54792,196.2723 C418.59115,196.0203 417.63577,195.77436 416.66379,195.56265 C413.74786,194.92753 410.6826,194.60052 407.78036,194.90937" id="mode-3 position--2" class="data contour"/>
		<path d="M 408.29874 196.00101 C404.43798,196.23233 400.66425,197.14017 396.91011,198.5485 C394.0945,199.60475 391.28991,200.94252 388.42997,201.65058 C386.52335,202.12262 384.59212,202.31479 382.64444,202.4023 C381.67061,202.44606 380.69265,202.46365 379.69135,202.37604 C378.69004,202.28844 377.66538,202.09563 376.67981,201.99936 C375.69424,201.90309 374.74776,201.90335 373.78091,201.85191 C372.81405,201.80047 371.82682,201.69735 370.89549,201.74748 C369.03283,201.84775 367.39377,202.56106 365.79812,203.20739 C365.0003,203.53056 364.21332,203.83698 363.45692,204.26775 C361.18772,205.56008 359.19371,207.9716 357.7237,210.71955 C357.23369,211.63553 356.80191,212.5889 356.3683,213.47115 C355.93468,214.3534 355.49923,215.16453 355.21135,216.10773 C354.92346,217.05093 354.78314,218.1262 354.69764,219.18093 C354.44114,222.34512 354.67804,225.32443 355.58521,228.19877 C356.19,230.11501 357.09269,231.98459 358.1373,233.69344 C359.18191,235.4023 360.36844,236.95042 361.67185,238.38943 C363.62697,240.54794 365.84505,242.46093 368.13405,244.25141 C370.42305,246.04188 372.78298,247.70983 375.22363,249.19601 C377.66429,250.68218 380.18566,251.98659 382.77189,253.15422 C384.49605,253.93265 386.24902,254.65029 388.01527,255.3722 C388.89839,255.73315 389.78484,256.09517 390.6812,256.42657 C393.3703,257.42074 396.14871,258.13927 398.97548,258.67153 C404.62902,259.73605 410.47601,260.05551 416.17,259.67204 C418.068,259.54422 419.94899,259.33829 421.81845,259.10934 C423.6879,258.88039 425.54582,258.62841 427.36433,258.222 C430.09208,257.61239 432.73117,256.6553 435.41214,255.78045 C438.09311,254.9056 440.81596,254.11297 443.31114,252.92628 C445.80632,251.73959 448.07383,250.15883 450.18056,248.25439 C451.58505,246.98477 452.91807,245.57129 454.2955,244.26798 C454.98421,243.61632 455.68401,242.99221 456.32104,242.32676 C457.59509,240.99585 458.61801,239.4996 459.65503,237.88399 C460.17353,237.07619 460.69556,236.23854 461.16507,235.38473 C462.10409,233.6771 462.83304,231.9048 463.4304,230.09984 C463.72908,229.19736 463.99486,228.28672 464.2429,227.32835 C464.98702,224.45325 465.57145,221.14863 465.63906,218.07197 C465.72921,213.96975 464.9006,210.27279 463.14173,206.88813 C462.26229,205.19579 461.15029,203.58154 459.70365,202.53801 C458.98033,202.01624 458.17334,201.63716 457.36881,201.29478 C455.75974,200.61 454.16046,200.07201 452.3707,200.03634 C451.47581,200.0185 450.53331,200.12624 449.64528,200.21634 C447.86923,200.39655 446.31109,200.50621 444.56058,200.56366 C443.68532,200.59239 442.76198,200.60806 441.85394,200.59341 C439.12983,200.54945 436.54352,200.23254 433.85528,199.92494 C431.16705,199.61733 428.3769,199.31904 425.56459,198.70671 C422.75229,198.09438 419.91783,197.16801 417.02834,196.6013 C414.13885,196.03459 411.19432,195.82753 408.29874,196.00101 z" id="mode-3 position--1" class="data contour"/>
		<path d="M 408.7868 197.02857 C404.94101,197.18358 401.16316,197.93877 397.46595,198.95135 C394.69304,199.71079 391.96549,200.61501 389.21561,201.26545 C386.46574,201.91589 383.69354,202.31256 381.04643,202.38682 C379.2817,202.43633 377.57255,202.34255 375.86473,202.39736 C375.01082,202.42476 374.15724,202.48931 373.30662,202.58706 C370.75474,202.88032 368.22946,203.4724 365.91658,204.70391 C363.60371,205.93542 361.50324,207.80637 359.69877,210.01286 C357.8943,212.21936 356.38584,214.76141 355.57213,217.57127 C354.75841,220.38112 354.63944,223.45877 355.0399,226.42906 C355.57386,230.38944 357.03126,234.15895 359.29802,237.41034 C360.43139,239.03604 361.76711,240.53222 363.16011,241.97721 C363.85662,242.69971 364.56744,243.40941 365.30222,244.09727 C367.50656,246.16087 369.92648,248.02793 372.52201,249.60369 C375.11754,251.17945 377.88868,252.46391 380.71112,253.6274 C386.35601,255.95437 392.20614,257.79744 398.25513,258.92139 C404.30412,260.04533 410.55198,260.45016 416.69822,260.12078 C423.86883,259.73651 430.90114,258.3529 437.53212,256.09865 C443.21581,254.16644 448.60466,251.59457 452.91962,247.5744 C454.35794,246.23434 455.67694,244.73336 456.95546,243.25137 C457.59473,242.51038 458.22387,241.77413 458.80774,241.00646 C460.55936,238.70346 461.90354,236.11768 462.85213,233.35241 C463.80071,230.58714 464.3537,227.64236 464.55878,224.78853 C464.76386,221.9347 464.62103,219.1718 464.05663,216.53073 C463.3041,213.0093 461.80211,209.70446 459.69636,207.05595 C458.64348,205.73169 457.43966,204.57152 456.12123,203.79649 C455.46201,203.40897 454.77414,203.11774 454.07835,202.85958 C451.99099,202.08509 449.83238,201.60823 447.6658,201.6122 C445.49922,201.61618 443.32466,202.101 440.98205,202.22871 C438.63944,202.35641 436.12878,202.12701 433.56449,201.68367 C431.00021,201.24033 428.3823,200.58306 425.69865,199.82595 C423.01501,199.06885 420.26562,198.21193 417.42965,197.6728 C414.59368,197.13366 411.67113,196.91231 408.7868,197.02857 z" id="mode-3 position-0" class="data contour"/>
		<path d="M 409.29524 198.10606 C407.38114,198.10758 405.45041,198.16685 403.5658,198.40874 C401.68119,198.65064 399.84271,199.07517 398.02615,199.42656 C396.20959,199.77795 394.41497,200.0562 392.64843,200.29133 C391.76516,200.4089 390.88891,200.51568 390.00335,200.74886 C389.11778,200.98203 388.2229,201.3416 387.35771,201.58214 C386.49251,201.82269 385.65699,201.94422 384.83228,202.05773 C384.00757,202.17125 383.19366,202.27675 382.4142,202.38053 C380.07581,202.69186 378.04744,202.98767 375.70885,203.39196 C374.92932,203.52673 374.11532,203.67355 373.29793,203.76933 C372.48054,203.86512 371.65975,203.90986 370.81281,204.10885 C369.96587,204.30785 369.09277,204.66109 368.32076,205.07126 C367.54874,205.48144 366.87781,205.94855 366.135,206.4164 C365.39219,206.88424 364.5775,207.35282 363.80531,207.80886 C363.03311,208.26489 362.30341,208.70838 361.62387,209.26304 C360.2648,210.37235 359.10638,211.92634 357.99057,213.51932 C357.43266,214.31581 356.8854,215.12205 356.43402,215.97822 C355.07989,218.54672 354.58868,221.56462 354.48798,224.62575 C354.42085,226.6665 354.52728,228.72647 354.91894,230.69924 C355.31061,232.672 355.98752,234.55757 356.90264,236.40726 C357.3602,237.33211 357.87731,238.24799 358.49691,239.10028 C359.11652,239.95257 359.83861,240.74126 360.51273,241.53792 C361.18684,242.33458 361.81298,243.13921 362.49143,243.91982 C364.5268,246.26168 367.03305,248.38742 369.81617,250.02021 C371.67158,251.10873 373.65005,251.97816 375.64077,252.86684 C376.63612,253.31118 377.63454,253.76033 378.64501,254.16597 C381.67642,255.3829 384.81627,256.20825 387.97654,256.99628 C391.1368,257.7843 394.31747,258.535 397.54077,259.14307 C400.76408,259.75113 404.03001,260.21655 407.32167,260.4886 C409.51611,260.66996 411.72199,260.76538 413.92269,260.66165 C415.02304,260.60979 416.1221,260.50814 417.22048,260.43414 C419.41723,260.28615 421.61128,260.2488 423.79143,260.00889 C425.97158,259.76899 428.13783,259.32653 430.27113,258.85765 C433.47107,258.15434 436.59686,257.39158 439.6101,256.34735 C445.63659,254.25888 451.21289,251.04454 455.6084,246.83302 C457.07357,245.42919 458.40754,243.91455 459.63405,242.26267 C460.2473,241.43673 460.83368,240.57648 461.36011,239.69948 C462.93942,237.06849 463.9792,234.28681 464.55359,231.31539 C464.93652,229.33444 465.1126,227.26917 465.04712,225.22509 C465.01437,224.20306 464.92124,223.18632 464.80083,222.24165 C464.43959,219.40765 463.83284,217.22229 462.56759,215.0003 C461.72409,213.51898 460.58793,212.02137 459.54714,210.6953 C458.50635,209.36922 457.56094,208.21466 456.36303,207.27244 C455.76407,206.80133 455.102,206.38331 454.44026,205.97064 C453.77853,205.55797 453.11714,205.15066 452.49056,204.92718 C451.86399,204.70371 451.27222,204.66406 450.6967,204.54374 C449.54565,204.30311 448.45956,203.73982 447.38613,203.37459 C446.84942,203.19198 446.31587,203.05888 445.72431,203.01316 C444.54119,202.92173 443.12603,203.17981 441.88893,203.46964 C441.27038,203.61456 440.69635,203.76741 440.08286,203.8659 C438.85589,204.0629 437.4711,204.04246 435.81116,203.85401 C434.98119,203.75978 434.08243,203.62354 433.22098,203.43788 C430.63663,202.88089 428.38809,201.87905 425.87954,200.95844 C423.371,200.03782 420.60246,199.19843 417.80131,198.71492 C415.00016,198.23141 412.1664,198.10377 409.29524,198.10606 z" id="mode-3 position-1" class="data contour"/>
		<path d="M 409.75851 199.2236 C407.82936,199.16414 405.95776,198.90528 404.08572,199.12197 C403.14971,199.23031 402.21358,199.45754 401.29468,199.59672 C400.37578,199.73589 399.47411,199.78701 398.58009,199.84518 C396.79205,199.96152 395.0346,200.10604 393.34066,200.08614 C392.49369,200.07619 391.6626,200.02513 390.80121,200.25578 C389.93982,200.48643 389.04813,200.99879 388.23426,201.30978 C387.4204,201.62077 386.68437,201.73039 385.94439,201.87595 C385.20441,202.02152 384.46047,202.20303 383.77887,202.39786 C381.73405,202.98236 380.25018,203.68678 378.11246,204.19408 C377.39989,204.36318 376.61467,204.51038 375.81414,204.52613 C375.01362,204.54189 374.19779,204.42619 373.3282,204.55792 C372.45861,204.68966 371.53527,205.06881 370.7544,205.47147 C369.97354,205.87413 369.33515,206.3003 368.55816,206.67081 C367.78117,207.04132 366.86558,207.35616 366.01377,207.65212 C365.16196,207.94809 364.37393,208.22517 363.5956,208.57732 C362.81728,208.92947 362.04866,209.35668 361.37041,210.00581 C360.69217,210.65494 360.10431,211.52599 359.41004,212.27385 C358.71578,213.0217 357.9151,213.64635 357.26434,214.37806 C355.31207,216.57319 354.70902,219.73181 353.95996,222.85186 C353.71027,223.89188 353.44436,224.92761 353.33764,225.99604 C353.23092,227.06446 353.28339,228.16559 353.36156,229.22653 C353.5179,231.34841 353.77704,233.30956 354.47554,235.38591 C354.82478,236.42409 355.28387,237.49106 355.88005,238.44522 C356.47623,239.39937 357.20951,240.2407 357.85229,241.1075 C358.49506,241.9743 359.04733,242.86658 359.67648,243.73666 C361.56393,246.3469 364.14329,248.75738 367.11005,250.44576 C369.0879,251.57134 371.23793,252.37598 373.36828,253.31224 C374.43345,253.78037 375.49371,254.2814 376.57378,254.70418 C379.814,255.97252 383.23257,256.53656 386.62849,257.25279 C390.02441,257.96902 393.39769,258.83744 396.82177,259.40371 C399.10448,259.78123 401.40978,260.02445 403.71978,260.41228 C404.87479,260.6062 406.03096,260.83627 407.19693,260.97729 C409.52886,261.25934 411.89994,261.18521 414.23303,261.02627 C415.39957,260.9468 416.55662,260.84613 417.72926,260.78971 C420.07453,260.67688 422.48214,260.74106 424.80746,260.48157 C427.13277,260.22209 429.37578,259.63894 431.67104,259.14233 C433.96631,258.64571 436.31384,258.23563 438.52823,257.66039 C439.63543,257.37278 440.70934,257.04387 441.7568,256.65999 C444.89918,255.50837 447.80349,253.86204 450.6179,252.08081 C453.43231,250.29957 456.15683,248.38343 458.37775,246.15529 C459.85836,244.66986 461.11515,243.04577 462.26076,241.23233 C462.83356,240.32561 463.37857,239.37155 463.86432,238.3986 C464.83582,236.45271 465.5703,234.43127 465.92531,232.37931 C466.10281,231.35333 466.18545,230.31972 466.22909,229.27134 C466.31639,227.1746 466.24773,225.0188 465.86714,222.80094 C465.67685,221.69201 465.40858,220.56757 465.09885,219.62573 C464.47938,217.74204 463.69407,216.58875 462.71349,215.33967 C462.22319,214.71513 461.68408,214.06664 461.05006,213.43265 C459.78203,212.16466 458.13435,210.95467 456.76762,209.9419 C455.40088,208.92914 454.31507,208.11361 452.97841,207.47098 C451.64176,206.82836 450.05424,206.35864 448.86802,206.19157 C448.27491,206.10803 447.78212,206.10016 447.33995,206.09485 C446.89778,206.08954 446.50624,206.08679 446.09094,205.88499 C445.67564,205.68319 445.23659,205.28235 444.86617,204.98581 C444.49574,204.68928 444.19394,204.49705 443.7648,204.41431 C442.90653,204.24884 441.53891,204.52136 440.54761,204.90828 C440.05196,205.10174 439.65039,205.3238 439.18766,205.48918 C438.26222,205.81994 437.09218,205.92396 435.46814,205.67882 C434.65612,205.55625 433.7306,205.34639 432.88326,205.12068 C431.18857,204.66927 429.8066,204.15446 428.31699,203.29524 C427.57219,202.86563 426.80047,202.34992 426.02478,201.98512 C425.24909,201.62032 424.46941,201.40642 423.60479,201.14229 C422.74017,200.87815 421.79061,200.56377 420.87233,200.32371 C419.95405,200.08364 419.06704,199.9179 418.17295,199.77462 C416.38477,199.48806 414.56824,199.29135 412.65744,199.2526 C411.70205,199.23322 410.72308,199.25334 409.75851,199.2236 z" id="mode-3 position-2" class="data contour"/>
		<text font-size="14" class="shapemode label" text-anchor="middle" x="410.63021" y="454.5">Shape Mode 3</text>
		<text font-size="12" class="shapemode label" text-anchor="middle" x="410.63021" y="467"> (4.8% of total variance)</text>
	</g>
	<g id="Shape Mode 4" class="layer">
		<path d="M 548.0068 203.75587 C545.93717,203.72034 543.83656,203.86378 541.76625,203.97068 C540.7311,204.02412 539.70352,204.06843 538.69208,204.07208 C537.68063,204.07573 536.68533,204.03873 535.71012,204.09849 C533.7597,204.21802 531.88968,204.72462 529.88881,204.82389 C528.88838,204.87353 527.85524,204.82134 526.84896,204.74402 C524.83641,204.58938 522.9313,204.33422 521.10905,204.01401 C520.19793,203.8539 519.30752,203.67752 518.42258,203.47616 C516.65269,203.07343 514.90467,202.57075 513.21334,202.03379 C512.36767,201.76531 511.53618,201.48826 510.73108,201.4051 C509.92598,201.32193 509.14728,201.43264 508.28129,201.48001 C507.4153,201.52737 506.46202,201.51139 505.61495,201.7715 C504.76787,202.03162 504.02701,202.56784 503.33531,203.07582 C501.95191,204.09179 500.76517,204.99483 499.53176,206.31175 C498.91505,206.97021 498.28667,207.73215 497.73393,208.49992 C496.62844,210.03546 495.82551,211.59436 495.09233,213.4212 C494.72574,214.33462 494.37659,215.31503 494.14049,216.29341 C493.90439,217.27179 493.78133,218.24813 493.78992,219.24989 C493.79851,220.25165 493.93875,221.27883 494.05023,222.28513 C494.16171,223.29143 494.24444,224.27686 494.46771,225.25309 C494.91426,227.20556 495.923,229.12123 496.91387,230.89052 C497.90474,232.65982 498.87773,234.28275 500.05289,235.80937 C500.64047,236.57269 501.27859,237.31192 501.99894,238.01669 C502.71929,238.72145 503.52187,239.39175 504.16425,240.17172 C504.80664,240.9517 505.28883,241.84136 505.91445,242.62117 C506.54008,243.40097 507.30915,244.07092 508.01157,244.78637 C508.71399,245.50181 509.34977,246.26275 510.03232,247.02198 C510.71488,247.78121 511.44422,248.53874 512.21133,249.24471 C514.51265,251.36264 517.15385,253.01662 519.88109,254.57204 C525.33557,257.68288 531.13423,260.39946 537.20599,261.9255 C539.22991,262.43418 541.28417,262.81057 543.3563,263.1086 C544.39236,263.25762 545.43289,263.38704 546.48032,263.50928 C548.57518,263.75378 550.69768,263.96956 552.79646,263.86239 C553.84584,263.8088 554.88931,263.67447 555.93425,263.57665 C556.9792,263.47882 558.02564,263.4175 559.04741,263.25951 C560.06919,263.10152 561.0663,262.84685 562.08573,262.6518 C564.12459,262.26169 566.25271,262.11001 568.14628,261.53104 C569.09307,261.24156 569.98122,260.84525 570.90823,260.50097 C571.83524,260.15669 572.8011,259.86444 573.76955,259.49405 C574.73799,259.12366 575.70902,258.67513 576.62675,258.1922 C578.46221,257.22635 580.08449,256.12293 581.623,254.88854 C582.39225,254.27134 583.14056,253.6214 583.87747,252.95921 C586.08818,250.97262 588.19624,248.87573 589.90024,246.54571 C591.03624,244.99237 591.99265,243.33542 593.06864,241.73278 C593.60663,240.93146 594.17452,240.14372 594.69573,239.33059 C595.73815,237.70432 596.59388,235.97649 597.43768,234.21079 C597.85957,233.32795 598.27849,232.43564 598.62716,231.51786 C599.67317,228.76454 600.087,225.78205 600.76818,222.90522 C601.22231,220.98734 601.79526,219.11642 602.02471,217.25487 C602.13944,216.3241 602.1683,215.39567 602.21275,214.47076 C602.2572,213.54585 602.31724,212.62446 602.18846,211.75182 C602.05969,210.87918 601.74209,210.05529 601.39948,209.29131 C600.71427,207.76336 599.92905,206.47504 598.96636,205.24377 C598.00366,204.0125 596.8635,202.83827 595.86796,201.80589 C595.3702,201.28971 594.90859,200.80898 594.40959,200.43183 C593.91059,200.05468 593.3742,199.78111 592.86334,199.51106 C592.35247,199.24101 591.86713,198.97448 591.21863,198.94775 C590.57013,198.92103 589.75847,199.1341 588.99431,199.47157 C587.46599,200.1465 586.12769,201.319 584.67725,202.52455 C583.95203,203.12733 583.19877,203.73837 582.37726,204.32113 C580.73424,205.48665 578.8182,206.53903 576.8302,206.97404 C575.83619,207.19154 574.8242,207.2547 573.85791,207.29492 C571.92534,207.37536 570.17561,207.36406 568.46918,206.82823 C567.61596,206.56031 566.77357,206.16126 565.84817,205.97759 C564.92277,205.79393 563.91435,205.82565 562.93072,205.69172 C561.94709,205.55778 560.98826,205.2582 560.02165,205.05426 C559.05505,204.85032 558.08067,204.74203 557.097,204.62282 C554.14598,204.26517 551.11124,203.80917 548.0068,203.75587 z" id="mode-4 position--2" class="data contour"/>
		<path d="M 547.81238 200.88961 C545.81571,200.91675 543.81809,201.11123 541.8402,201.30699 C539.8623,201.50274 537.90412,201.69978 536.00422,202.0412 C534.10432,202.38262 532.2627,202.86841 530.34542,203.16014 C529.38678,203.306 528.40922,203.40335 527.44705,203.47861 C524.56054,203.70438 521.81255,203.73136 519.15385,203.43241 C516.49516,203.13346 513.92578,202.50858 511.44358,202.53054 C510.61618,202.53786 509.79847,202.61705 508.94353,202.72035 C508.0886,202.82365 507.19644,202.95106 506.37126,203.21859 C505.54608,203.48613 504.78789,203.89378 504.05518,204.34969 C501.85704,205.7174 499.88824,207.51936 498.17047,209.72691 C496.4527,211.93447 494.98594,214.54762 494.2936,217.41851 C493.83204,219.33244 493.71467,221.36092 493.81564,223.35783 C493.86613,224.35629 493.9712,225.34686 494.16615,226.32859 C494.55606,228.29204 495.30548,230.22016 496.14364,232.03036 C496.9818,233.84056 497.90871,235.53284 499.08679,237.10185 C500.26487,238.67085 501.69412,240.11659 503.05354,241.58802 C503.73325,242.32374 504.39551,243.06588 505.07689,243.79779 C507.12103,245.99353 509.33726,248.09719 511.79307,249.90596 C514.24887,251.71473 516.94424,253.22862 519.71429,254.60334 C525.25438,257.35278 531.09317,259.54555 537.1515,260.90187 C540.18067,261.58002 543.26472,262.04907 546.37985,262.30615 C549.49498,262.56324 552.64119,262.60836 555.73485,262.36252 C557.79729,262.19862 559.83637,261.90541 561.87361,261.6019 C563.91085,261.29839 565.94625,260.98458 567.89219,260.51033 C569.83814,260.03608 571.69462,259.4014 573.61563,258.71376 C574.57614,258.36993 575.55277,258.01287 576.49428,257.62226 C579.31879,256.45044 581.82708,254.97672 584.22401,253.2926 C586.62094,251.60849 588.9065,249.71398 590.83129,247.54313 C592.11448,246.09589 593.23733,244.52583 594.42525,242.98696 C595.0192,242.21753 595.62943,241.4559 596.18442,240.66544 C597.29441,239.08453 598.18348,237.3883 599.01039,235.6242 C599.42384,234.74215 599.82176,233.84313 600.15954,232.92313 C601.17289,230.16313 601.64505,227.21429 602.07268,224.34446 C602.5003,221.47464 602.88339,218.68382 602.61106,215.99286 C602.42951,214.19888 601.95666,212.44929 601.2929,210.87161 C600.62913,209.29394 599.77444,207.88819 598.7611,206.64689 C598.25443,206.02624 597.7081,205.4467 597.14668,204.85875 C596.58526,204.2708 596.00877,203.67444 595.4161,203.23137 C594.82343,202.78831 594.2146,202.49854 593.62293,202.19603 C592.4396,201.59099 591.32494,200.93496 589.95077,200.83515 C589.26369,200.78525 588.51173,200.8744 587.76696,201.04344 C586.27743,201.38151 584.81667,202.03911 583.35849,202.75791 C582.6294,203.11731 581.90096,203.49201 581.11402,203.8046 C578.7532,204.74238 575.86591,205.12118 573.12676,205.01475 C571.30067,204.9438 569.54041,204.6572 567.82397,204.15948 C566.96575,203.91063 566.11848,203.609 565.2119,203.39582 C564.30532,203.18265 563.33942,203.05793 562.38417,202.86058 C561.42892,202.66323 560.48431,202.39326 559.53782,202.17561 C558.59134,201.95796 557.64297,201.79263 556.68229,201.64064 C553.80026,201.1847 550.80738,200.8489 547.81238,200.88961 z" id="mode-4 position--1" class="data contour"/>
		<path d="M 547.6246 198.01364 C543.77882,198.16865 540.00097,198.92384 536.30375,199.93643 C533.53084,200.69586 530.80329,201.60008 528.05342,202.25053 C525.30354,202.90097 522.53135,203.29763 519.88424,203.3719 C518.1195,203.42141 516.41036,203.32763 514.70254,203.38243 C513.84863,203.40983 512.99505,203.47438 512.14442,203.57214 C509.59255,203.86539 507.06726,204.45747 504.75439,205.68898 C502.44151,206.9205 500.34104,208.79144 498.53657,210.99794 C496.73211,213.20444 495.22365,215.74649 494.40993,218.55634 C493.59621,221.36619 493.47724,224.44385 493.87771,227.41413 C494.41166,231.37451 495.86907,235.14402 498.13582,238.39542 C499.2692,240.02112 500.60491,241.51729 501.99792,242.96228 C502.69442,243.68478 503.40525,244.39448 504.14003,245.08235 C506.34436,247.14594 508.76429,249.013 511.35981,250.58876 C513.95534,252.16452 516.72648,253.44899 519.54893,254.61247 C525.19382,256.93944 531.04394,258.78251 537.09293,259.90646 C543.14193,261.03041 549.38978,261.43524 555.53602,261.10586 C562.70664,260.72158 569.73894,259.33797 576.36992,257.08372 C582.05362,255.15151 587.44246,252.57965 591.75742,248.55948 C593.19575,247.21942 594.51475,245.71844 595.79327,244.23645 C596.43253,243.49545 597.06167,242.7592 597.64554,241.99154 C599.39716,239.68854 600.74134,237.10276 601.68993,234.33748 C602.63852,231.57221 603.1915,228.62744 603.39658,225.7736 C603.60166,222.91977 603.45883,220.15687 602.89443,217.5158 C602.1419,213.99438 600.63991,210.68953 598.53416,208.04102 C597.48128,206.71677 596.27747,205.55659 594.95903,204.78156 C594.29981,204.39404 593.61194,204.10281 592.91615,203.84465 C590.82879,203.07016 588.67019,202.5933 586.5036,202.59728 C584.33702,202.60125 582.16246,203.08607 579.81985,203.21378 C577.47724,203.34149 574.96658,203.11209 572.4023,202.66875 C569.83801,202.22541 567.2201,201.56813 564.53646,200.81103 C561.85281,200.05393 559.10342,199.197 556.26746,198.65787 C553.43149,198.11873 550.50894,197.89739 547.6246,198.01364 z" id="mode-4 position-0" class="data contour"/>
		<path d="M 547.4332 195.15332 C545.5912,195.26877 543.79787,195.50213 541.99125,195.97136 C540.18462,196.4406 538.3647,197.14571 536.57823,197.84243 C533.89852,198.88751 531.29407,199.9137 528.64244,200.95589 C525.99082,201.99807 523.29203,203.05626 520.62974,203.3522 C519.74231,203.45085 518.85894,203.4648 518.00419,203.57688 C517.14944,203.68895 516.3233,203.89915 515.45801,204.09029 C514.59272,204.28144 513.68827,204.45353 512.82113,204.64669 C511.08687,205.03299 509.50187,205.50352 507.88006,206.03905 C507.06916,206.30681 506.24906,206.59082 505.44631,206.97953 C503.84081,207.75693 502.30474,208.95309 500.90235,210.23906 C500.20116,210.88205 499.53339,211.54749 498.903,212.25794 C497.01182,214.3893 495.45703,216.92573 494.53279,219.7058 C493.60855,222.48587 493.31486,225.50956 493.53032,228.48326 C493.81761,232.44819 495.01007,236.32422 497.13843,239.68849 C498.73469,242.21168 500.85739,244.44701 503.22099,246.37147 C505.58458,248.29593 508.18907,249.90951 510.91992,251.25829 C513.65077,252.60707 516.508,253.69103 519.38643,254.64597 C525.14331,256.55583 530.98506,257.94956 537.03074,258.88515 C540.05359,259.35294 543.12741,259.7062 546.18351,259.8533 C549.2396,260.00041 552.27796,259.94136 555.32468,259.80822 C559.38697,259.6307 563.46412,259.32146 567.43119,258.57737 C570.4065,258.01931 573.31988,257.21665 576.25436,256.47837 C579.18884,255.74008 582.14443,255.06618 584.92271,253.97294 C587.701,252.87969 590.30198,251.3671 592.68599,249.53171 C595.07,247.69632 597.23704,245.53814 599.12883,243.3091 C599.75943,242.56608 600.35944,241.8152 600.85719,241.01011 C601.35495,240.20503 601.75044,239.34575 602.13967,238.45798 C602.5289,237.57021 602.91185,236.65394 603.2377,235.72654 C605.19281,230.16217 605.09203,224.19731 603.24691,219.01669 C602.63186,217.28982 601.823,215.65008 601.03336,214.04007 C600.24372,212.43006 599.47329,210.84977 598.40588,209.45381 C597.33848,208.05784 595.9741,206.8462 594.46072,206.23176 C593.70404,205.92454 592.9101,205.76662 592.11918,205.59623 C590.53735,205.25543 588.9676,204.86471 587.48223,204.56239 C586.73955,204.41124 586.01796,204.28218 585.28131,204.15024 C583.07133,203.75442 580.72574,203.33267 578.52466,202.64039 C577.05727,202.17886 575.65411,201.5971 574.08338,201.06913 C573.29801,200.80515 572.47075,200.55462 571.6363,200.31615 C569.13294,199.60073 566.56489,198.99381 563.93826,198.15328 C561.31163,197.31274 558.62643,196.23857 555.84758,195.65542 C553.06872,195.07227 550.1962,194.98015 547.4332,195.15332" id="mode-4 position-1" class="data contour"/>
		<path d="M 547.2282 192.30576 C545.4566,192.46556 543.78011,192.67829 542.06876,193.28478 C540.3574,193.89127 538.61119,194.89153 536.87634,195.76854 C534.27406,197.08405 531.69734,198.12226 529.21984,199.65576 C528.394,200.16692 527.57919,200.73312 526.71662,201.21929 C525.85405,201.70545 524.94372,202.11157 524.0337,202.45097 C523.12368,202.79037 522.21397,203.06303 521.33113,203.2614 C520.44828,203.45977 519.5923,203.58385 518.75317,203.83563 C517.91405,204.08741 517.09179,204.4669 516.21491,204.80125 C515.33803,205.1356 514.40653,205.42482 513.51483,205.7076 C512.62313,205.99037 511.77122,206.26671 510.97842,206.5687 C510.18562,206.87068 509.45191,207.19831 508.64521,207.4574 C507.8385,207.71649 506.95879,207.90703 506.12602,208.2667 C505.29325,208.62638 504.50742,209.15519 503.70874,209.72479 C502.91006,210.29439 502.09852,210.90478 501.3427,211.53147 C500.58688,212.15817 499.88676,212.80116 499.25876,213.505 C498.63075,214.20884 498.07485,214.97352 497.48793,215.75887 C496.901,216.54423 496.28304,217.35025 495.80339,218.19664 C495.32374,219.04302 494.98239,219.92978 494.6633,220.84426 C494.02512,222.67324 493.47596,224.61314 493.31163,226.58268 C493.22947,227.56745 493.24351,228.55963 493.26426,229.5526 C493.30577,231.53856 493.37411,233.5277 493.83459,235.45511 C494.29507,237.38252 495.1477,239.24819 496.183,240.99036 C497.21831,242.73253 498.43631,244.3512 499.92944,245.70041 C500.67601,246.37501 501.49137,246.98224 502.31146,247.59368 C503.13155,248.20512 503.95637,248.82076 504.83434,249.35931 C505.71231,249.89786 506.64343,250.35933 507.601,250.78767 C508.55857,251.21602 509.54259,251.61124 510.51558,251.96111 C512.46157,252.66087 514.36345,253.17927 516.2953,253.80368 C517.26123,254.11589 518.23464,254.45461 519.21515,254.71151 C520.19566,254.96841 521.18327,255.1435 522.15542,255.3652 C523.12758,255.58691 524.08428,255.85523 525.0611,256.06345 C526.03791,256.27167 527.03484,256.41979 528.02816,256.56943 C531.0081,257.01837 533.95546,257.48106 536.96992,257.87011 C538.97957,258.12948 541.01903,258.35612 543.0471,258.49859 C544.06114,258.56983 545.07232,258.62002 546.081,258.64416 C548.09837,258.69243 550.1057,258.63648 552.1097,258.5687 C553.1117,258.53481 554.11287,258.49796 555.12138,258.48682 C557.1384,258.46454 559.1848,258.54507 561.18658,258.38928 C563.18836,258.23348 565.14553,257.84136 567.18075,257.53932 C568.19836,257.38829 569.23548,257.25979 570.24216,257.08757 C571.24884,256.91535 572.22508,256.69941 573.19584,256.49208 C574.1666,256.28474 575.13188,256.08601 576.12249,255.91287 C579.09433,255.39345 582.29412,255.10432 585.27568,254.30761 C588.25724,253.51089 591.02056,252.2066 593.61297,250.53 C596.20538,248.85341 598.62688,246.80451 600.6335,244.6475 C601.30237,243.92849 601.92514,243.19748 602.42398,242.39832 C602.92283,241.59916 603.29773,240.73186 603.68421,239.85064 C604.07069,238.96942 604.46874,238.07429 604.79799,237.15699 C605.78571,234.40509 606.15414,231.45368 605.93429,228.63051 C605.71445,225.80734 604.90632,223.11241 603.57551,220.55875 C603.1319,219.70753 602.63022,218.87201 602.18034,218.05494 C601.73046,217.23787 601.33238,216.43926 600.93039,215.62122 C600.12642,213.98515 599.30682,212.27139 598.20606,210.85159 C597.65568,210.1417 597.03501,209.50529 596.32847,208.95232 C595.62194,208.39936 594.82954,207.92982 593.98881,207.67771 C593.14808,207.4256 592.25903,207.39091 591.36656,207.31061 C589.58162,207.15 587.78304,206.80693 586.24762,206.40657 C585.47991,206.20639 584.77798,205.9919 584.04609,205.71684 C582.58231,205.16672 580.99865,204.37437 579.45296,203.47977 C578.68012,203.03247 577.91676,202.55961 577.2241,202.07179 C576.53143,201.58398 575.90945,201.0812 575.25064,200.55989 C574.59182,200.03858 573.89617,199.49873 573.15959,199.07539 C572.423,198.65205 571.64549,198.3452 570.86005,198.01617 C570.07462,197.68713 569.28125,197.3359 568.46511,197.04548 C567.64898,196.75506 566.81008,196.52545 565.93996,196.30289 C565.06984,196.08032 564.16851,195.86479 563.29885,195.54149 C562.42919,195.21818 561.59119,194.7871 560.72799,194.43744 C559.86479,194.08777 558.97638,193.81951 558.09479,193.52078 C557.2132,193.22205 556.33843,192.89285 555.44307,192.656 C552.75699,191.94545 549.8856,192.06606 547.2282,192.30576 z" id="mode-4 position-2" class="data contour"/>
		<text font-size="14" class="shapemode label" text-anchor="middle" x="549.62476" y="454.5">Shape Mode 4</text>
		<text font-size="12" class="shapemode label" text-anchor="middle" x="549.62476" y="467"> (2.9% of total variance)</text>
	</g>
	<g id="scale bar" class="layer">
		<g id="scalebar lines">
			<line id="scalebar" class="scalebar" x1="30" x2="67.600153" y1="480" y2="480"/>
			<line id="scalebar left tic" class="scalebar tic" x1="30" x2="30" y1="478.5" y2="481.5"/>
			<line id="scalebar right tic" class="scalebar tic" x1="67.600153" x2="67.600153" y1="478.5" y2="481.5"/>
		</g>
		<text font-size="12" class="scalebar label" text-anchor="middle" x="48.800076" y="493.5">25 pixels</text>
	</g>
	<g id="legend" class="layer">
		<g id="-2 s.d. row">
			<line id="position--2" class="data legend" x1="550" x2="600" y1="19" y2="19"/>
			<text font-size="12" class="legend label" text-anchor="start" x="603" y="22">-2 s.d.</text>
		</g>
		<g id="-1 s.d. row">
			<line id="position--1" class="data legend" x1="550" x2="600" y1="34" y2="34"/>
			<text font-size="12" class="legend label" text-anchor="start" x="603" y="37">-1 s.d.</text>
		</g>
		<g id="mean row">
			<line id="position-0" class="data legend" x1="550" x2="600" y1="49" y2="49"/>
			<text font-size="12" class="legend label" text-anchor="start" x="603" y="52">mean</text>
		</g>
		<g id="1 s.d. row">
			<line id="position-1" class="data legend" x1="550" x2="600" y1="64" y2="64"/>
			<text font-size="12" class="legend label" text-anchor="start" x="603" y="67">1 s.d.</text>
		</g>
		<g id="2 s.d. row">
			<line id="position-2" class="data legend" x1="550" x2="600" y1="79" y2="79"/>
			<text font-size="12" class="legend label" text-anchor="start" x="603" y="82">2 s.d.</text>
		</g>
	</g>
	<g id="title" class="layer">
		<text font-size="14" class="plot title" text-anchor="middle" x="320" y="14">kModel</text>
	</g>
</svg>
